<?xml version="1.0" standalone="no"?>
<!DOCTYPE svg PUBLIC "-//W3C//DTD SVG 20010904//EN"
 "http://www.w3.org/TR/2001/REC-SVG-20010904/DTD/svg10.dtd">
<svg version="1.0" xmlns="http://www.w3.org/2000/svg"
 width="512.000000pt" height="512.000000pt" viewBox="0 0 512.000000 512.000000"
 preserveAspectRatio="xMidYMid meet">
<metadata>
Created by potrace 1.11, written by Peter Selinger 2001-2013
</metadata>
<g transform="translate(0.000000,512.000000) scale(0.100000,-0.100000)"
fill="#000000" stroke="none">
<path d="M2383 4847 c-77 -45 -290 -170 -472 -277 -182 -107 -344 -202 -359
-211 -15 -9 -133 -78 -262 -154 -221 -130 -472 -277 -543 -319 -213 -123 -271
-161 -288 -190 -18 -30 -19 -64 -19 -1143 l0 -1112 33 -33 c17 -19 268 -172
557 -342 289 -169 532 -312 540 -317 20 -12 168 -98 205 -119 17 -9 91 -53
165 -97 585 -346 580 -343 616 -343 46 0 2061 1185 2092 1230 l22 33 0 1106
c0 1072 -1 1107 -19 1137 -13 21 -59 55 -138 102 -65 38 -350 206 -633 372
-283 166 -569 334 -635 373 -66 40 -129 77 -140 83 -11 6 -132 77 -270 157
-172 102 -259 147 -280 147 -19 0 -80 -29 -172 -83z m354 -513 c98 -146 183
-273 188 -282 6 -9 110 -167 233 -349 122 -183 222 -334 222 -336 0 -2 -371
-3 -825 -3 -454 0 -825 1 -825 3 0 8 819 1233 824 1233 3 0 85 -119 183 -266z
m-573 104 c-7 -12 -694 -1040 -699 -1045 -1 -2 -146 56 -323 129 -177 73 -319
134 -316 137 6 6 1337 790 1342 791 2 0 0 -6 -4 -12z m1306 -298 c245 -144
461 -271 480 -282 121 -70 340 -201 338 -203 -16 -14 -643 -263 -647 -257 -34
49 -689 1030 -695 1040 -10 17 -18 22 524 -298z m-2465 -815 c181 -74 330
-136 332 -139 2 -2 -40 -87 -95 -187 -54 -101 -121 -224 -147 -274 -27 -49
-65 -121 -87 -158 -21 -38 -38 -70 -38 -72 0 -2 -17 -34 -38 -72 -22 -37 -59
-106 -84 -153 -25 -47 -56 -105 -70 -130 -14 -25 -42 -76 -63 -115 -21 -38
-39 -72 -41 -74 -2 -2 -4 336 -4 752 0 416 2 757 4 757 2 0 151 -61 331 -135z
m3435 118 c3 -121 0 -1486 -3 -1489 -2 -2 -35 53 -72 123 -38 71 -152 283
-255 473 -103 190 -210 388 -238 441 -28 53 -63 116 -77 140 -13 24 -25 47
-25 50 0 3 30 18 68 34 37 15 85 35 107 45 22 10 85 36 140 58 55 23 154 64
220 91 66 27 123 50 128 50 4 1 7 -7 7 -16z m-1063 -376 c-19 -34 -56 -102
-82 -152 -26 -49 -62 -117 -80 -150 -18 -33 -54 -100 -80 -150 -26 -49 -76
-142 -110 -205 -34 -63 -88 -164 -120 -225 -32 -60 -70 -132 -85 -160 -35 -64
-83 -154 -150 -280 -90 -167 -108 -200 -115 -200 -4 0 -21 27 -39 60 -54 101
-138 258 -162 303 -13 23 -47 86 -75 140 -29 53 -68 126 -87 162 -19 35 -54
101 -77 145 -23 44 -57 107 -75 140 -54 101 -95 176 -145 270 -109 205 -129
243 -162 303 l-35 62 856 0 857 0 -34 -63z m322 -242 c112 -208 124 -231 146
-270 12 -22 43 -80 70 -130 26 -49 56 -103 65 -120 10 -16 43 -79 75 -140 32
-60 61 -114 65 -120 4 -5 31 -55 60 -110 30 -55 61 -113 70 -130 9 -16 40 -74
69 -127 l53 -98 -29 -1 c-15 0 -37 -2 -47 -4 -11 -2 -52 -6 -92 -10 -40 -3
-88 -8 -106 -10 -45 -5 -130 -14 -203 -20 -33 -3 -78 -7 -100 -10 -55 -6 -141
-15 -195 -19 -69 -6 -182 -17 -215 -21 -17 -2 -82 -9 -145 -15 -63 -5 -131
-12 -150 -15 -19 -3 -66 -7 -105 -10 -79 -6 -144 -13 -194 -21 l-33 -5 62 118
c35 65 79 147 98 183 19 36 52 97 72 135 21 39 53 99 73 135 43 82 258 484
302 565 133 249 190 355 215 404 l22 44 22 -39 c12 -22 46 -84 75 -139z
m-2146 93 c37 -73 68 -132 209 -393 41 -77 103 -194 138 -260 35 -66 66 -124
70 -130 4 -5 35 -64 70 -130 34 -66 71 -133 80 -150 10 -16 42 -77 73 -135 30
-58 77 -147 105 -197 44 -82 48 -98 21 -95 -3 1 -37 4 -75 7 -38 3 -85 7 -104
10 -35 4 -92 10 -205 20 -33 3 -80 8 -105 10 -124 13 -261 26 -315 31 -33 3
-76 7 -95 9 -19 3 -64 7 -100 10 -36 3 -81 7 -100 10 -19 2 -69 7 -110 10 -41
3 -86 8 -100 10 -14 3 -52 7 -85 10 -33 3 -88 8 -123 11 l-63 6 50 92 c72 136
180 334 211 391 43 78 282 520 335 620 27 50 68 125 92 169 23 43 43 80 43 83
0 8 33 53 39 53 4 0 23 -33 44 -72z m-278 -1623 c86 -8 159 -16 195 -20 31 -4
94 -10 217 -20 23 -2 61 -6 85 -9 24 -3 122 -12 218 -21 96 -8 193 -17 215
-20 22 -3 72 -8 110 -11 79 -6 116 -11 121 -17 3 -2 3 -153 2 -334 l-3 -331
-85 51 c-92 54 -635 373 -1030 605 l-245 143 75 -6 c41 -3 98 -7 125 -10z
m2685 -28 c-109 -62 -247 -143 -795 -466 l-490 -288 -3 330 c-1 181 -1 332 1
334 4 3 51 9 152 18 33 3 78 8 100 10 22 2 69 6 105 10 36 3 81 8 100 10 19 3
67 7 105 10 39 3 88 7 110 10 59 7 120 13 205 20 41 4 86 8 99 10 13 3 58 7
100 11 42 3 103 9 136 13 33 4 80 8 105 9 l45 3 -75 -44z"/>
</g>
</svg>
