<?xml version="1.0" encoding="utf-8"?>
<!-- Generator: Adobe Illustrator 21.1.0, SVG Export Plug-In . SVG Version: 6.00 Build 0)  -->
<svg version="1.1" id="Layer_2" xmlns="http://www.w3.org/2000/svg" xmlns:xlink="http://www.w3.org/1999/xlink" x="0px" y="0px"
	 viewBox="0 0 108.3 124.5" style="enable-background:new 0 0 108.3 124.5;" xml:space="preserve">
<style type="text/css">
	.st0{fill:none;stroke:#17004D;stroke-width:3;stroke-miterlimit:10;}
	.st1{fill:none;stroke:#17004D;stroke-width:3;stroke-miterlimit:10;stroke-dasharray:9.2464,2.0548;}
</style>
<polygon class="st0" points="54.1,89.8 6.8,89.8 30.5,48.9 54.1,7.9 77.8,48.9 101.4,89.8 "/>
<polygon class="st0" points="54.1,50.3 76.2,50.3 65.2,69.4 54.1,88.4 43.1,69.4 32.1,50.3 "/>
<polygon class="st0" points="103,90.5 103,34 54.2,5.8 5.3,34 5.3,90.5 54.2,118.7 "/>
<g>
	<g>
		<line class="st0" x1="5.3" y1="34" x2="13" y2="38.7"/>
		<line class="st1" x1="14.8" y1="39.8" x2="23.5" y2="45.1"/>
		<line class="st0" x1="24.4" y1="45.6" x2="32.1" y2="50.3"/>
	</g>
</g>
<g>
	<g>
		<line class="st0" x1="75.8" y1="50.8" x2="83.4" y2="45.9"/>
		<line class="st1" x1="85.1" y1="44.8" x2="93.8" y2="39.2"/>
		<line class="st0" x1="94.6" y1="38.7" x2="102.2" y2="33.8"/>
	</g>
</g>
<g>
	<g>
		<line class="st0" x1="54.2" y1="119.2" x2="54.2" y2="110.2"/>
		<line class="st1" x1="54.2" y1="108.1" x2="54.2" y2="97.8"/>
		<line class="st0" x1="54.2" y1="96.8" x2="54.2" y2="87.8"/>
	</g>
</g>
</svg>
