<?xml version="1.0" encoding="utf-8"?>
<!-- Generator: Adobe Illustrator 22.1.0, SVG Export Plug-In . SVG Version: 6.00 Build 0)  -->
<svg version="1.1" id="Layer_1" xmlns="http://www.w3.org/2000/svg" xmlns:xlink="http://www.w3.org/1999/xlink" x="0px" y="0px"
	 viewBox="0 0 196 71" style="enable-background:new 0 0 196 71;" xml:space="preserve">
<style type="text/css">
	.st0{fill:#FFFFFF;}
</style>
<title>header-logo</title>
<rect class="st0" width="196" height="71"/>
<path d="M29.4,64.8V42H21v22.8H11V10.3h10v21.9h8.3V10.3h10v54.5H29.4z"/>
<path d="M65.8,64.8l-1.6-8.5H52.7L51,64.8H40.6l12.9-54.5h9.9l12.9,54.5H65.8z M58.4,26.3l-3.9,20.2h7.8L58.4,26.3z"/>
<path d="M102.7,59.5c-2.6,3.5-6.7,5.5-11,5.3H77.5V10.3h14.2c4.3-0.2,8.4,1.8,11,5.3c3.5,4.4,3.7,11.9,3.7,21.9
	S106.2,55.1,102.7,59.5z M95.2,22.5c-0.7-1.5-2.1-2.4-3.7-2.4h-4V55h4c1.6,0,3.1-0.9,3.7-2.4c1.2-2.5,1.2-9.1,1.2-15.1
	S96.4,25,95.2,22.5L95.2,22.5z"/>
<path d="M134.8,59.5c-2.6,3.5-6.7,5.5-11,5.3h-14.2V10.3h14.2c4.3-0.2,8.4,1.8,11,5.3c3.5,4.4,3.7,11.9,3.7,21.9
	S138.3,55.1,134.8,59.5z M127.3,22.5c-0.7-1.5-2.1-2.4-3.7-2.4h-4V55h4c1.6,0,3.1-0.9,3.7-2.4c1.2-2.5,1.2-9.1,1.2-15.1
	S128.5,25,127.3,22.5L127.3,22.5z"/>
<path d="M141.7,64.8V10.3h10v54.5H141.7z"/>
<path d="M174,64.8l-5-17.4l-5,17.4h-11l10.3-28.2l-9.5-26.3h11l4.3,16.3l4.2-16.3h11l-9.8,26.3L185,64.8H174z"/>
</svg>
