<?xml version="1.0" encoding="utf-8"?>
<!-- Generator: Adobe Illustrator 23.0.4, SVG Export Plug-In . SVG Version: 6.00 Build 0)  -->
<svg version="1.1" id="Layer_1" xmlns="http://www.w3.org/2000/svg" xmlns:xlink="http://www.w3.org/1999/xlink" x="0px" y="0px"
	 viewBox="0 0 196 71" style="enable-background:new 0 0 196 71;" xml:space="preserve">
<title>header-logo</title>
<path d="M29.4,62.8V40H21v22.8H11V8.3h10v21.9h8.3V8.3h10v54.5H29.4z"/>
<path d="M65.8,62.8l-1.6-8.5H52.7L51,62.8H40.6L53.5,8.3h9.9l12.9,54.5H65.8z M58.4,24.3l-3.9,20.2h7.8L58.4,24.3z"/>
<path d="M102.7,57.5c-2.6,3.5-6.7,5.5-11,5.3H77.5V8.3h14.2c4.3-0.2,8.4,1.8,11,5.3c3.5,4.4,3.7,11.9,3.7,21.9
	S106.2,53.1,102.7,57.5z M95.2,20.5c-0.7-1.5-2.1-2.4-3.7-2.4h-4V53h4c1.6,0,3.1-0.9,3.7-2.4c1.2-2.5,1.2-9.1,1.2-15.1
	S96.4,23,95.2,20.5L95.2,20.5z"/>
<path d="M134.8,57.5c-2.6,3.5-6.7,5.5-11,5.3h-14.2V8.3h14.2c4.3-0.2,8.4,1.8,11,5.3c3.5,4.4,3.7,11.9,3.7,21.9
	S138.3,53.1,134.8,57.5z M127.3,20.5c-0.7-1.5-2.1-2.4-3.7-2.4h-4V53h4c1.6,0,3.1-0.9,3.7-2.4c1.2-2.5,1.2-9.1,1.2-15.1
	S128.5,23,127.3,20.5L127.3,20.5z"/>
<path d="M141.7,62.8V8.3h10v54.5H141.7z"/>
<path d="M174,62.8l-5-17.4l-5,17.4h-11l10.3-28.2l-9.5-26.3h11l4.3,16.3l4.2-16.3h11l-9.8,26.3L185,62.8H174z"/>
</svg>
