<?xml version="1.0" encoding="utf-8"?>
<!-- Generator: Adobe Illustrator 21.1.0, SVG Export Plug-In . SVG Version: 6.00 Build 0)  -->
<svg version="1.1" id="Layer_1" xmlns="http://www.w3.org/2000/svg" xmlns:xlink="http://www.w3.org/1999/xlink" x="0px" y="0px"
	 viewBox="0 0 400 128" style="enable-background:new 0 0 400 128;" xml:space="preserve">
<style type="text/css">
	.st0{fill-rule:evenodd;clip-rule:evenodd;fill:#242428;}
</style>
<g>
	<g>
		<path class="st0" d="M246.2,96.4c-22.6,16.7-55.4,25.6-83.7,25.6c-39.6,0-75.2-14.6-102.2-39c-2.1-1.9-0.2-4.5,2.3-3
			C91.8,96.8,127.8,107,164.9,107c25.1,0,52.6-5.2,78-16C246.7,89.4,250,93.6,246.2,96.4z"/>
		<path class="st0" d="M255.6,85.6c-2.9-3.7-19.1-1.8-26.4-0.9c-2.2,0.3-2.6-1.7-0.6-3.1c12.9-9.1,34.2-6.5,36.6-3.4
			c2.5,3.1-0.7,24.3-12.8,34.5c-1.9,1.6-3.6,0.7-2.8-1.3C252.4,104.6,258.5,89.3,255.6,85.6z"/>
	</g>
	<g>
		<path class="st0" d="M229.7,17.4V8.6c0-1.3,1-2.2,2.2-2.2l39.6,0c1.3,0,2.3,0.9,2.3,2.2l0,7.6c0,1.3-1.1,2.9-3,5.6L250.4,51
			c7.6-0.2,15.7,1,22.6,4.9c1.6,0.9,2,2.2,2.1,3.4v9.4c0,1.3-1.4,2.8-2.9,2c-12.2-6.4-28.4-7.1-41.8,0.1c-1.4,0.7-2.8-0.7-2.8-2v-9
			c0-1.4,0-3.9,1.5-6.1l23.8-34.1l-20.7,0C230.7,19.6,229.7,18.7,229.7,17.4z"/>
		<path class="st0" d="M85.2,72.6h-12c-1.1-0.1-2.1-0.9-2.2-2l0-61.8c0-1.2,1-2.2,2.3-2.2l11.2,0c1.2,0.1,2.1,0.9,2.2,2.1v8.1H87
			c2.9-7.8,8.4-11.5,15.9-11.5c7.5,0,12.3,3.6,15.6,11.5c2.9-7.8,9.6-11.5,16.6-11.5c5.1,0,10.6,2.1,13.9,6.8c3.8,5.2,3,12.8,3,19.4
			l0,39c0,1.2-1,2.2-2.3,2.2h-12c-1.2-0.1-2.2-1-2.2-2.2l0-32.8c0-2.6,0.2-9.1-0.3-11.6c-0.9-4.2-3.6-5.3-7.1-5.3
			c-2.9,0-6,2-7.2,5.1c-1.2,3.1-1.1,8.3-1.1,11.8v32.8c0,1.2-1,2.2-2.3,2.2h-12c-1.2-0.1-2.2-1-2.2-2.2l0-32.8c0-6.9,1.1-17-7.4-17
			c-8.7,0-8.3,9.9-8.3,17l0,32.8C87.6,71.6,86.5,72.6,85.2,72.6z"/>
		<path class="st0" d="M307.9,5.2c17.9,0,27.6,15.4,27.6,34.9c0,18.9-10.7,33.8-27.6,33.8c-17.5,0-27.1-15.4-27.1-34.5
			C280.8,20.2,290.5,5.2,307.9,5.2z M308.1,17.8c-8.9,0-9.4,12.1-9.4,19.7c0,7.5-0.1,23.7,9.3,23.7c9.3,0,9.8-13,9.8-21
			c0-5.2-0.2-11.5-1.8-16.4C314.6,19.5,311.9,17.8,308.1,17.8z"/>
		<path class="st0" d="M358.7,72.6h-12c-1.2-0.1-2.2-1-2.2-2.2l0-61.9c0.1-1.1,1.1-2,2.3-2l11.2,0c1.1,0.1,1.9,0.8,2.1,1.7v9.5h0.2
			c3.4-8.5,8.1-12.5,16.4-12.5c5.4,0,10.7,2,14.1,7.3c3.2,4.9,3.2,13.3,3.2,19.3v38.9c-0.1,1.1-1.1,1.9-2.3,1.9h-12.1
			c-1.1-0.1-2-0.9-2.1-1.9V37.1c0-6.8,0.8-16.7-7.5-16.7c-2.9,0-5.6,2-7,4.9c-1.7,3.8-1.9,7.5-1.9,11.7v33.3
			C361,71.6,360,72.6,358.7,72.6z"/>
		<path class="st0" d="M198.1,43.1c0,4.7,0.1,8.6-2.3,12.8c-1.9,3.4-5,5.5-8.3,5.5c-4.6,0-7.3-3.5-7.3-8.7
			c0-10.3,9.2-12.1,17.9-12.1V43.1z M210.3,72.5c-0.8,0.7-1.9,0.8-2.8,0.3c-4-3.3-4.7-4.9-6.9-8c-6.6,6.7-11.3,8.8-19.9,8.8
			c-10.1,0-18-6.3-18-18.8c0-9.8,5.3-16.4,12.8-19.7c6.5-2.9,15.7-3.4,22.7-4.2v-1.6c0-2.9,0.2-6.3-1.5-8.7
			c-1.5-2.2-4.3-3.1-6.8-3.1c-4.6,0-8.7,2.4-9.7,7.2c-0.2,1.1-1,2.2-2.1,2.2l-11.7-1.3c-1-0.2-2.1-1-1.8-2.5
			c2.7-14.2,15.5-18.4,26.9-18.4c5.9,0,13.5,1.6,18.1,6c5.9,5.5,5.3,12.8,5.3,20.7v18.8c0,5.6,2.3,8.1,4.5,11.2
			c0.8,1.1,0.9,2.4,0,3.2C217.1,66.5,212.7,70.3,210.3,72.5L210.3,72.5z"/>
		<path class="st0" d="M40.2,43.1c0,4.7,0.1,8.6-2.3,12.8c-1.9,3.4-5,5.5-8.3,5.5c-4.6,0-7.3-3.5-7.3-8.7c0-10.3,9.2-12.1,17.9-12.1
			V43.1z M52.3,72.5c-0.8,0.7-1.9,0.8-2.8,0.3c-4-3.3-4.7-4.9-6.9-8c-6.6,6.7-11.3,8.8-19.9,8.8c-10.1,0-18-6.3-18-18.8
			c0-9.8,5.3-16.4,12.8-19.7c6.5-2.9,15.7-3.4,22.7-4.2v-1.6c0-2.9,0.2-6.3-1.5-8.7c-1.5-2.2-4.3-3.1-6.8-3.1
			c-4.6,0-8.7,2.4-9.7,7.2c-0.2,1.1-1,2.2-2.1,2.2L8.5,25.6c-1-0.2-2.1-1-1.8-2.5C9.4,8.9,22.2,4.6,33.6,4.6c5.9,0,13.5,1.6,18.1,6
			c5.9,5.5,5.3,12.8,5.3,20.7v18.8c0,5.6,2.3,8.1,4.5,11.2c0.8,1.1,0.9,2.4,0,3.2C59.1,66.5,54.8,70.3,52.3,72.5L52.3,72.5z"/>
	</g>
</g>
</svg>
