<?xml version="1.0" encoding="utf-8"?>
<!-- Generator: Adobe Illustrator 21.1.0, SVG Export Plug-In . SVG Version: 6.00 Build 0)  -->
<svg version="1.1" id="Layer_1" xmlns="http://www.w3.org/2000/svg" xmlns:xlink="http://www.w3.org/1999/xlink" x="0px" y="0px"
	 viewBox="0 0 400 273" style="enable-background:new 0 0 400 273;" xml:space="preserve">
<style type="text/css">
	.st0{fill:#242428;}
</style>
<g>
	<g>
		<path class="st0" d="M14.1,65.8C41.1,44.8,68.3,24,95.3,3c68,6.4,136,13,204,19.5c32.2,3.1,64.4,6.2,96.6,9.3
			c-7.4,79-14.9,157.9-22.2,236.9c-100.5-9.6-201-19.3-301.6-28.8C49.6,213.8,27,187.6,4.5,161.5c2.9-28.9,5.7-57.7,8.5-86.6
			C13.5,71.9,13.4,68.8,14.1,65.8z M61.8,45.6c-2.3,24.3-4.6,48.6-6.8,72.9c12.2,1.3,24.5,2.5,36.7,3.8c11.4,1,22.9,2.8,34.3,0.6
			c5.8-1.1,11.9-3.2,15.7-7.9c4-5.1,3.9-12.8,0.1-17.9c-3.2-4.4-8-7.3-13.1-9c2.9-1,5.7-2.2,8.1-4.1c5-3.8,7.3-10.7,5.9-16.8
			c-1.5-5.2-6.2-8.4-10.8-10.7c-7.6-3.6-16-5.5-24.4-6.2C92.2,48.6,77,47.1,61.8,45.6z M153,54.8c-2.2,24.2-4.4,48.4-6.6,72.6
			c22.9,2.1,45.8,4.4,68.7,6.5c0.6-6.5,1.2-12.9,1.8-19.4c-10.5-1-20.9-2-31.4-3c0.2-2.5,0.5-4.9,0.7-7.4c9.3,0.8,18.6,1.7,27.9,2.6
			c0.6-6.3,1.2-12.5,1.8-18.7c-9.3-0.9-18.7-1.8-28-2.7c0.2-2.2,0.4-4.4,0.6-6.6c10.2,0.9,20.5,1.9,30.7,2.9
			c0.7-6.8,1.3-13.6,2-20.4C198.5,59.1,175.7,56.9,153,54.8z M251.7,65.9c-7.5,1.6-14.8,4.8-20.3,10.1c-3.1,3.1-5.6,7.2-5.6,11.7
			c-0.3,5.3,2.1,10.6,6.2,13.9c6,5.2,14,6.9,21.5,9c3.3,1,7,1.3,10,3.1c1.1,0.7,2.4,1.6,2.4,3.1c-0.7,2-3.1,2.3-4.8,2.7
			c-5,0.7-10-0.6-14.7-2c-5.3-1.7-10.7-3.9-14.9-7.6c-4.3,6.4-8.6,12.7-12.9,19c13,6.3,27.2,9.9,41.6,10.9
			c10.6,0.6,21.7-0.4,31.3-5.5c5.8-3.1,10.8-8.5,11.8-15.2c1.5-8.8-4.3-18-12.7-20.8c-7.1-2.3-14.4-3.9-21.5-6.4
			c-1.9-0.7-3.9-1.4-5.3-2.8c-1.1-1,0.2-2.4,1.2-2.8c3.2-1.5,6.8-1.2,10.2-0.8c6.2,0.7,12,3.4,17.3,6.6c4-5.6,8-11.2,11.7-17
			c-5.3-3.2-11-5.6-16.9-7.3C275.6,64.8,263.4,63.4,251.7,65.9z M307.3,69.7c-0.6,7.9-1.6,15.7-2.1,23.6c6.7,0.5,13.3,1.2,20,1.9
			c-1.4,16.4-2.8,32.8-4.2,49.2c12.2,1.1,24.4,2.3,36.7,3.5c1.6-16.4,3.1-32.7,4.7-49.1c6.7,0.6,13.4,1.2,20.1,1.9
			c0.7-7.9,1.5-15.8,2.2-23.6C358.9,74.6,333.1,72,307.3,69.7z M28.1,104.4c-4.4,0.8-8.2,3.8-10,7.9c-1.9,4.2-1.5,9.3,1.1,13.1
			c2.6,4,7.3,6.4,12.1,6.1c5.4-0.2,10.4-3.9,12.1-9c1.7-4.6,0.7-10-2.5-13.6C37.8,105.2,32.7,103.5,28.1,104.4z M69.1,129.2
			c-2.2,24.3-4.6,48.6-6.8,72.8c14.9,1.5,29.7,3.1,44.6,4.5c9.9,1.1,20.1,1.6,29.9-1c4.7-1.3,9.5-3.4,12.5-7.4
			c3.7-5,3.6-12.3,0-17.3c-3.2-4.6-8.2-7.4-13.3-9.4c4-1.1,7.8-3.2,10.5-6.3c3.2-3.7,4.4-8.9,3.7-13.7c-0.9-4.7-4.8-8.1-8.7-10.4
			c-6.9-3.9-14.7-5.8-22.5-6.9C102.3,132.4,85.7,130.7,69.1,129.2z M158.7,137.8c-1.5,15.7-3,31.4-4.4,47
			c0.4,8.8,5.8,16.8,12.8,21.8c8.8,6.2,19.6,8.7,30.2,9.8c10.7,1,22,0.6,32-4c7.4-3.4,13.8-9.7,15.7-17.8c1.5-14.3,2.8-28.7,4.2-43
			c0.1-1.8,0.5-3.6,0.3-5.4c-11.8-0.8-23.6-2.2-35.4-3.2c-1.3,13.6-2.6,27.1-3.9,40.7c-0.1,2.8-1,5.7-3.2,7.5
			c-2.7,2.3-6.6,2.3-10,1.7c-2.8-0.5-5.7-2.1-6.6-4.9c-0.9-2.4-0.1-4.9,0.2-7.3c1.2-13.3,2.4-26.5,3.6-39.8
			C182.4,139.9,170.5,138.8,158.7,137.8z M249.7,147.7c0.3,0.2,0.8,0.7,1,1c6.7,9.9,13.5,19.8,20.3,29.7c3,4.6,6.3,8.9,9.1,13.6
			c-0.8,10.2-1.9,20.4-2.8,30.6c12.1,1.1,24.2,2.3,36.3,3.4c0.9-10,1.9-20.1,2.9-30.1c-0.1-1.3,1.2-2.1,2-3
			c12.3-12.1,24.5-24.2,36.7-36.3c-13.8-1.4-27.6-2.6-41.3-3.9c-4.4,5.9-8.7,11.9-13.2,17.8c-3.5-6.7-6.7-13.4-10.3-20
			c-13.3-1.2-26.5-2.4-39.8-3.7C250.2,147,249.9,147.3,249.7,147.7z M358.8,158.9c-2.7,1.1-4.2,4.6-3.1,7.3c0.9,2.8,4.3,4.6,7.1,3.7
			c3-0.8,4.9-4.2,4.1-7.1C366.1,159.3,362,157.3,358.8,158.9z"/>
	</g>
	<path class="st0" d="M93.5,77.1c0.2-3.3,0.5-6.6,0.9-9.9c4.3,0,9.1-0.3,12.9,2.1c2.6,1.7,2,6-0.7,7.2
		C102.6,78.5,97.8,77.7,93.5,77.1z"/>
	<path class="st0" d="M92,92.5c4.8,0,9.8,0.2,14.4,2.1c2.2,0.9,4.5,2.7,4.3,5.3c0,2.6-2.4,4.3-4.7,4.8c-4.9,1.2-9.9,0.5-14.8-0.3
		C91.4,100.5,91.7,96.5,92,92.5z"/>
	<path class="st0" d="M100.5,160.3c0.3-3.3,0.6-6.6,1-9.9c4,0,8.3-0.3,12,1.6c1.6,0.8,2.9,2.5,2.5,4.4c-0.2,2.1-2,3.5-3.8,4.1
		C108.4,161.5,104.3,161,100.5,160.3z"/>
	<g>
		<path class="st0" d="M359.4,159.9c2.8-1.5,6.3,0.9,6.3,3.9c0.4,3.1-3,6.1-6,4.8C355.9,167.4,355.9,161.5,359.4,159.9z
			 M359.3,160.7c-0.2,2.2-0.4,4.4-0.6,6.7c0.3,0,0.9,0.1,1.2,0.1c0.3-0.9-0.4-2.8,0.9-2.8c0.9,1.1,0.9,3.5,2.8,3.2
			c-0.5-1-0.9-2-1.4-2.9c1.5-0.2,2.4-1.8,1.5-3.1C362.6,160.6,360.7,160.9,359.3,160.7z"/>
	</g>
	<path class="st0" d="M360.5,161.6c0.8,0.3,2.2,0,2.3,1.1c-0.1,1.4-1.7,0.9-2.7,0.8C360.3,163.1,360.4,162.1,360.5,161.6z"/>
	<path class="st0" d="M99,175.8c4.9,0,10,0.2,14.6,2.2c2.2,0.9,4.4,3,4,5.6c-0.2,2.5-2.5,4-4.7,4.5c-4.9,1.1-9.9,0.4-14.7-0.3
		C98.4,183.8,98.7,179.8,99,175.8z"/>
</g>
</svg>
