<?xml version="1.0" encoding="utf-8"?>
<!-- Generator: Adobe Illustrator 21.1.0, SVG Export Plug-In . SVG Version: 6.00 Build 0)  -->
<svg version="1.1" id="Layer_1" xmlns="http://www.w3.org/2000/svg" xmlns:xlink="http://www.w3.org/1999/xlink" x="0px" y="0px"
	 viewBox="0 0 400 400" style="enable-background:new 0 0 400 400;" xml:space="preserve">
<style type="text/css">
	.st0{fill:#242428;}
</style>
<g>
	<polygon class="st0" points="42.2,91.5 42.2,202.1 202.9,260.7 362.9,202.1 362.9,91.5 202.9,150.1 	"/>
	<polygon class="st0" points="42.2,226.2 42.2,336.8 202.9,395.4 362.9,336.8 362.9,226.2 202.9,284.8 	"/>
	<polygon class="st0" points="181.5,21.5 196.1,21.5 206.5,62.3 217,21.5 231.5,21.5 216.5,80.1 196.6,80.1 	"/>
	<path class="st0" d="M264.4,21.5h-27.8v58.6h15V45.2c0-7.7,4.9-7.9,12.8-7.9V21.5L264.4,21.5z"/>
	<path class="st0" d="M341.5,37.3c4.9,0,6.6,1.6,6.6,7.2v35.6h14.8V37.3c0-6.3-3.3-16.5-15.5-15.8h-27.8v58.6h14.8V37.3H341.5
		L341.5,37.3z"/>
	<path class="st0" d="M289.8,21.5c-24.1,0-21.7,14.7-21.7,28.5c0,15.5-2,30.1,22.1,30.1c24,0,21.4-14.7,21.4-30.5
		C311.5,34.1,314.5,21.5,289.8,21.5L289.8,21.5z M289.8,64.9c-6.8,0-7.1-5.1-7.1-14.7c0-9.2,0.8-13.8,7.1-13.8
		c6.3,0,6.8,4.3,6.9,13.5C296.9,60,296.7,64.9,289.8,64.9L289.8,64.9z"/>
	<path class="st0" d="M152.8,56.5h26.4c0-1.8-0.1-3.1-0.1-4.8c0-15.5,2.3-30.3-20.4-30.3c-24.1,0-21.7,16.5-21.7,30.3
		c0,12.5-0.3,28.3,23.7,28.3h18.4V65.6h-19.4C156.1,65.6,153.2,62.1,152.8,56.5L152.8,56.5z M152.8,40.6c0-6.9,10.5-6.6,10.5-1v4.1
		h-10.5V40.6L152.8,40.6z"/>
	<path class="st0" d="M86.5,5v75.1h14.8V43.5c0.3-8.2,14.3-8.2,14.3-0.3v36.9h14.8V38.8c0-9.5-6.3-16.5-17.5-16.5
		c-6.6,0-10.7,0.8-11.7,2.1V5H86.5L86.5,5z"/>
	<path class="st0" d="M79.4,5H62.6c-21.4,0-25,17.8-25,37.9s3.6,37.2,21.7,37.2h20.1V64.3H64.9c-10.5,0-9.9-14.5-9.9-21.7
		s-2-20.7,12.5-21.1h11.9V5L79.4,5z"/>
</g>
</svg>
