<?xml version="1.0" encoding="utf-8"?>
<!-- Generator: Adobe Illustrator 21.1.0, SVG Export Plug-In . SVG Version: 6.00 Build 0)  -->
<svg version="1.1" id="Layer_1" xmlns="http://www.w3.org/2000/svg" xmlns:xlink="http://www.w3.org/1999/xlink" x="0px" y="0px"
	 viewBox="0 0 400 274" style="enable-background:new 0 0 400 274;" xml:space="preserve">
<style type="text/css">
	.st0{fill:#242428;}
</style>
<g>
	<path class="st0" d="M268.9,12.4l2.6-3.8c-2.9-2.4-6.4-3.6-10.3-3.4c-6.5-0.2-9.8,2.6-9.6,8.2c0,4.1,3.1,7,9.4,8.6
		c4.3,0.9,6.4,2.4,6.4,4.3c0,2.4-1.7,3.6-5.2,3.6c-3.1,0-6-1.2-8.9-3.6l-3.1,3.6c3.6,2.9,7.6,4.5,12,4.5c6.7,0,10.1-2.9,10.1-8.6
		c0-4.1-3.1-6.9-9.1-8.4c-4.6-1.2-6.9-2.6-6.9-4.5c0-2.2,1.5-3.4,4.6-3.4C263.6,9.5,266.2,10.5,268.9,12.4L268.9,12.4z"/>
	<path class="st0" d="M306.2,19.6c0-4.1-1.4-7.6-4.1-10.3c-2.9-2.9-6.5-4.3-10.8-4.3s-7.9,1.4-10.6,4.3s-4.1,6.4-4.1,10.5
		s1.4,7.6,4.1,10.3c2.7,2.9,6.4,4.3,10.6,4.3c4.3,0,7.9-1.4,10.8-4.3C304.8,27.2,306.2,23.7,306.2,19.6L306.2,19.6z M298.1,12.6
		c1.9,1.9,2.7,4.3,2.9,7.2c0,2.7-0.9,5.2-2.7,7c-1.9,1.9-4.1,2.9-7,3.1c-2.7-0.2-5-1.2-6.9-3.1s-2.7-4.3-2.7-7.2
		c0-2.7,0.9-5.2,2.7-7c1.7-1.9,4-2.9,6.9-2.9C294,9.6,296.2,10.7,298.1,12.6L298.1,12.6z"/>
	<polygon class="st0" points="311.5,5.5 311.5,33.9 331.3,33.9 331.3,29.4 316.3,29.4 316.3,5.5 	"/>
	<polygon class="st0" points="379.4,5.5 374.4,5.5 374.4,33.9 394.3,33.9 394.3,29.4 379.4,29.4 	"/>
	<polygon class="st0" points="367.9,5.5 363,5.5 363,33.9 367.9,33.9 	"/>
	<polygon class="st0" points="341.1,29.6 341.1,21.8 355.3,21.8 355.3,17.4 341.1,17.4 341.1,10 357,10 357,5.5 335.9,5.5 
		335.9,33.9 357.4,33.9 357.4,29.6 	"/>
	<polygon class="st0" points="160.9,5.5 139.8,5.5 139.8,33.9 161.1,33.9 161.1,29.6 144.7,29.6 144.7,21.8 159,21.8 159,17.4 
		144.7,17.4 144.7,10 160.9,10 	"/>
	<path class="st0" d="M114.3,5.5h-5.2v16.3c0,8.2,4.1,12.4,12.2,12.5c8.1,0,12.2-4.3,12.2-12.7V5.5h-5v16.3c0,5.3-2.4,7.9-7.2,8.1
		c-4.8-0.2-7.2-2.9-7-8.2V5.5L114.3,5.5z"/>
	<path class="st0" d="M134.1,37.3c-3.4,2.9-8.2,4.5-14.6,4.5c-5.3,0-11.2-1.5-17.7-4.8l-6.7-3.6c6-2.4,9.1-7,9.1-13.7
		c0-4.1-1.4-7.6-4.1-10.3C97.2,6.4,93.7,5,89.4,5c-4.3,0-7.9,1.5-10.8,4.5c-2.7,2.7-4.1,6.2-4.1,10.3c0,7.2,3.3,11.9,10,13.9
		l17.7,8.4c4.1,1.9,8.8,2.7,14.1,2.7c8.4-0.2,14.8-2.2,18.9-6.2L134.1,37.3L134.1,37.3z M89.3,9.6c2.7,0,5.2,1,7,2.9
		c1.7,1.9,2.6,4.3,2.6,7.2c0,2.7-0.9,5.2-2.6,7c-1.9,1.9-4.1,2.9-6.9,3.1c-2.9-0.2-5.2-1.2-7-3.1c-1.9-1.9-2.7-4.3-2.7-7.2
		c0-2.7,0.9-5.2,2.7-7C84.3,10.7,86.5,9.6,89.3,9.6L89.3,9.6z"/>
	<path class="st0" d="M234.4,5.5h-5.2v16.3c0,5.3-2.4,7.9-7,8.1c-4.8-0.2-7.2-2.9-7.2-8.2V5.5h-5v16.3c0,8.2,4.1,12.4,12.2,12.5
		c8.1,0,12.2-4.3,12.2-12.7V5.5L234.4,5.5z"/>
	<path class="st0" d="M189.9,5.5h-10.6v28.3h10.6c4.3,0,7.9-1.4,10.8-4c2.9-2.9,4.3-6.4,4.3-10.3c0-4.1-1.4-7.6-4.3-10.1
		S194.2,5.5,189.9,5.5L189.9,5.5z M184.2,10h5.7c6.5,0,9.8,3.3,9.8,9.8c0,6.4-3.3,9.6-9.8,9.6h-5.7V10L184.2,10z"/>
	<polygon class="st0" points="242.3,85 236.5,80.6 220.8,102.6 	"/>
	<path class="st0" d="M228.7,79l-4.3,7.7c-1.5,2.9-2.4,5.8-2.2,8.4l-3.4,6.4l15.8-21.8c-7.9-4-15.3-6.4-22.3-7l-3.8,25.9
		c5-3.6,7.2-7.7,6.7-12.4C216.9,83.5,221.3,81.1,228.7,79L228.7,79z"/>
	<path class="st0" d="M225.8,81.9c-4.3,0.5-7.4,2.7-8.9,6.5c0.5,3.3-1.4,6.7-6,10.3c-1,1-1.5,3.4-1.7,7c-0.2,3.1-1.2,5.2-3.1,6.2
		l-0.2-0.3l-7.6-34.4l-3.3,31.6l-0.3,0.3c-2.1-4.5-4.1-7.2-6.4-8.4c-1.5-0.9-2.7-2.2-3.6-4.5l-2.2-5l-6.5-5.3
		c-3.1-1.9-5-3.8-5.5-5.8l-0.7,2.7c-0.2,4.1,1.7,7.4,6,9.6c0.9,0.9,1.2,2.4,1.4,4.8c0.2,2.2,0.9,4,1.7,4.8c4.5,2.6,6.4,6,5.7,10.5
		h-0.2L154.5,90h-0.7v0.3l25.1,28.3v0.7l-6-0.3c-2.6,0.2-4.3-0.7-5.5-2.6c-3.4-2.2-6-2.7-7.7-1.9c-3.8,0.7-7-1.4-9.8-6
		c-0.2,0.9,0,2.6,0.7,5c1.2,5.3,4.6,8.6,10.6,9.4c1.9-0.5,4.1,0,6.4,1.5l5.7,4l-0.9,0.2l-12.7,0.2l-0.2,4.3l22-3.8l1-4
		c-1.2-1.2-3.4-2.1-6.4-2.4c-3.3-0.3-5.5-1-6.5-1.9c-1.4-1.7-3.6-2.7-6.9-3.1c-3.3-0.3-5.5-1.2-6.7-2.4l-0.7-0.7l6,0.3
		c2.6-0.2,4.6,0.7,6.4,2.6c0.9,1.7,2.6,2.4,5.5,2.2l6.4,0.5l3.6,3.1l2.4-4l0.7-0.9L165,99.3l23.5,17.5l2.4-1.9l0.7-0.3
		c-0.9-6.4-3.3-10.8-7.6-13.1l-2-5.5l-2.9-5l-3.8-2.7c-1.5-1-2.6-2.2-2.9-3.6l5.5,3.8c2.4,1.4,4,2.9,4.6,4.5c1.2,5,3.4,8.2,7,10.1
		l2.6,4.5c0.9,1.9,1.7,3.3,2.6,4.1l0.9,1.4l4-0.3l-0.3-27l5.8,27.5l5.3,2.4c1.5-1.7,2.4-4.3,2.6-7.6c0-3.6,0.5-6,1.4-7.2
		c3.1-4.1,4.6-7.6,4.5-10.3c0-2.2,1.2-4,3.4-5.3c-1.2,1.2-1.7,3.3-1.9,6.4c-0.2,2.9-0.9,5-1.9,6.2c-3.6,4-5,8.4-4.3,13.4l-2.4,5.3
		l2.6,2.4l23-24.7L217,122.6l1.7,4.1c6.4-5.3,11.3-8.6,14.6-9.4l4.5-5.5c1.5-2.7,3.1-4.6,4.5-5.5l-3.1,8.1c-1.5,2.9-3.6,5.2-6.2,6.4
		c-2.4,0.5-4.8,1.5-7.4,3.4l-6.7,4l0.5,4.1l22.7-1.9l-0.9,10.6l2.4,0.2c0.9-3.6,1.2-7.6,0.9-11.9l-21-1.7l-0.5-0.2
		c2.2-2.6,5.7-4.6,10.1-5.8c3.3-1,5.8-4.1,7.7-9.1c1.9-5.3,4.1-8.8,6.9-10.3v-0.5c-6.2-0.9-11.5,2.2-16.1,9.1
		c-1.5,0.2-3.3,1.5-5,4.1c-1.9,2.2-3.6,3.6-5.2,3.8l0.2-0.7l22.3-31.4L215.6,110c-1-2.6-0.5-5.3,1.4-8.2c2.6-4,4-6.5,4.1-7.7
		C220.3,90.7,221.9,86.8,225.8,81.9L225.8,81.9z"/>
	<polygon class="st0" points="196.6,72 188.2,73 193.3,100.2 	"/>
	<path class="st0" d="M186.5,92.9c1.2,3.1,2.6,5.2,4,6.4l-4.8-25.8c-4.3,0.2-8.9,1.5-13.9,4c2.2,4.3,5.7,7.4,10.5,9.3
		C183.7,87.8,185.3,89.8,186.5,92.9L186.5,92.9z"/>
	<path class="st0" d="M191.8,116.5c-2.6,2.1-4.3,3.6-4.8,4.5c-2.1,2.6-3.3,5.5-3.8,9.1s0.2,6.9,1.7,9.8c2.9,6,7.9,9.1,15.3,9.4
		c6.2-0.2,11.2-3.1,14.8-8.9c3.6-5.7,3.6-11.5,0-17.7c-3.3-5.3-8.1-8.1-14.6-8.2C197.6,114.2,194.7,114.9,191.8,116.5L191.8,116.5z
		 M185.4,129.7l2.2,1.7l2.1,7.4c0,0.9-0.2,1.2-0.7,1.2c-1.2-0.2-2.2-0.9-2.9-2.2l-1.2-3.6C184.4,131.9,184.6,130.4,185.4,129.7
		L185.4,129.7z M187,126.1c-0.2-0.2,0.2-0.7,1-1.5l2.4-1c-1.4,0.2-1.9-0.3-1.7-1.2l6.2,0.5v1.7c-0.2,0.5,0,1,0.5,1.4l-1.4,3.6
		c-0.7,0.9-1.5,1.2-2.4,1.2l1.5-1.7l-2.1-1.9l-2.1,1.2l-1.4,1.7c0.7-1.4,0.9-2.4,0.3-3.3c2.6,0.5,4.1-0.2,4.6-1.7l-4.1,0.3
		L187,126.1L187,126.1z M206.4,122.7l-4.1-0.7l7.7-0.3l0.2,0.3l-1.4,2.4c-0.7,0.9-0.5,1.5,0.3,2.2c0.9,0,1.7-0.3,2.7-1
		c0.2,0.9-0.3,1.9-1.5,3.1c-1.9,0.9-3.3,1.2-4.1,0.9l-0.9-1c-0.5,0.2-0.5,0.5-0.3,1l0.3,1.4l-1.4-0.2c-0.9-0.9-1.4-1.9-1.2-3.4
		c1.5-0.2,2.4-0.9,2.6-1.7l-3.3-0.3l1.2-1.2h2.2C206.4,124.2,206.6,123.7,206.4,122.7L206.4,122.7z M201.9,131.1l0.5,0.9l-0.7,2.6
		l-2.6-0.2c-1.4,0.3-2.2,0.3-2.7,0l-1,0.7l-0.3-1.7l1.5,0.5l1.9,0.2c2.1-0.2,2.9-1,2.4-2.6L201.9,131.1L201.9,131.1z M212.2,130
		c0.2-1,0.9-1.4,1.7-1.2l1.5,1.5c0.9,3.3,0.3,6.4-1.7,8.9c-0.5,0.5-1.2,0.7-2.1,0.5c-1.4-1.2-1.7-2.9-1.2-4.8L212.2,130L212.2,130z
		 M204.3,136.2c0.5-0.7,1.2-0.9,1.7-0.5l2.2-3.3c0.5,0.9,0.2,1.7-1.2,2.9l-0.9,5.2c-0.9-1.2-1.9-1.5-2.9-1l-3.6,0.5l-3.8-0.2
		c-1.7-0.2-2.7-0.5-3.3-1.4l-0.7,0.7l-1.2-5.5l2.1,3.6c0.9,1.4,2.1,1.7,3.6,1.2l1.7-0.7l4.8,0.2L204.3,136.2L204.3,136.2z"/>
	<path class="st0" d="M188.7,139l0.3-0.3c-0.5-3.4-1.5-6-3.1-7.6c-0.7,1.2-0.7,2.7,0.2,4.5l2.1,3.4L188.7,139L188.7,139z"/>
	<path class="st0" d="M193,126.6c-0.2,0.5,0.2,0.9,0.9,0.9l0.2-0.7L193,126.6L193,126.6z"/>
	<path class="st0" d="M208.1,127.5h-0.7v0.9h0.5C208.5,128.1,208.5,127.8,208.1,127.5L208.1,127.5z"/>
	<path class="st0" d="M214.3,130c-0.9-0.2-1.4,0.7-1.9,2.2l-1.2,4c-0.2,0.9,0.2,1.4,1,1.5c0.9,0.2,1.4,0,1.5-0.5l1.2-6.4L214.3,130
		L214.3,130z"/>
	<path class="st0" d="M232.7,106c1.4-2.2,2.7-3.8,4-4.3c4.6-3.3,9.6-3.8,14.8-1.2c-0.5,1.9-2.2,4.5-5.2,7.7
		c-2.4,7.4-5.2,12.4-8.1,14.9h0.3l48.3-21.6c-0.2-1-0.9-1.7-2.4-2.2l-3.3,0.2c-0.9,0.2-1.4,0.9-1.9,2.1l-1.2,2.6
		c-3.8,1.5-7.7,2.1-11.7,1.5c-4.6-0.5-8.2-2.2-10.8-5.2c-3.8-5.8-7.2-10-10.3-12.5l-16.7,22.5L232.7,106L232.7,106z"/>
	<path class="st0" d="M240.2,131.4l-0.5-0.5l-21,5.2l-1.7,4.6l10,1.4c3.6,3.1,7.9,4.3,13.2,3.8c1.7,0.5,3.8,2.2,6,5.5
		c2.1,2.9,4.1,4.5,6.2,4.8c-1.5-1.9-3.3-4.8-4.8-8.4c-0.9-2.7-3.1-4.3-6.9-4.8c-4.3-0.5-7-1.7-8.1-3.4l-6.4-1.2
		c-2.9,0.2-5-0.3-6-1.4l3.4-1.2c0.9,0.5,2.2,0.9,3.8,0.7c1.7-0.3,3.8,0.3,6,1.9c2.2,1.5,4.1,2.4,5.5,2.2L240.2,131.4L240.2,131.4z"
		/>
	<path class="st0" d="M210.2,72.3L200,72c0.9,6.7,2.9,16.8,5.8,30.2L210.2,72.3L210.2,72.3z"/>
	<path class="st0" d="M168.4,79c-4.1,2.2-6.7,4.1-7.7,5.3l14.9,17.2c0.3-3.6-1.7-7.2-6-10.5C167.8,88.1,167.2,84.2,168.4,79
		L168.4,79z"/>
	<path class="st0" d="M159,85.2c-1.9,1.2-3.1,2.4-4,4l19.4,13.9L159,85.2L159,85.2z"/>
	<path class="st0" d="M116.4,101.5c-1.2,0.2-1.9,0.7-1.9,1.5l39,19.6c-3.4-4.6-5.3-8.8-5.7-12.5c-0.2-2.6,0-4.3,0.9-4.8l6.4,5.3
		c2.6,1.5,5.3,1.9,7.9,1c1.2,0,2.6,0.9,4.3,2.6c1.5,1.5,2.9,2.1,4.1,1.9l-23.4-17l-3.1,4c-1.2,1-4.3,2.2-9.4,3.4
		c-6.4,1.4-10.6,1-13.2-1l-1.2-2.7C120,101.5,118.5,101.2,116.4,101.5L116.4,101.5z"/>
	<path class="st0" d="M113.7,104.6l-0.2,2.2l2.1,2.4c1.2,0.9,2.9,0.9,5.3,0c8.1,3.1,13.1,7.9,15.1,14.4l-0.3,0.3h-17l-1.7-1.4h-2.6
		c-0.9,0.5-1.4,1.7-1.4,3.6c0.2,1.2,1,1.9,2.6,2.1c0.7,0,1.7-0.5,3.1-1.7l40.4,0.2L113.7,104.6L113.7,104.6z"/>
	<path class="st0" d="M139.2,128.8h-2.9c-1,20.6,6,37.3,21,50.2l2.1-2.4C145.1,163.9,138.4,147.9,139.2,128.8L139.2,128.8z"/>
	<polygon class="st0" points="134.4,128.8 120,128.8 124,136.4 134.6,135.7 	"/>
	<polygon class="st0" points="151.8,92.9 148.9,97.4 171.4,113.9 	"/>
	<polygon class="st0" points="153.3,128.8 150.6,128.8 150.4,134.3 153.3,134.2 	"/>
	<path class="st0" d="M144.1,128.8H141c-0.9,18.4,5.5,34,19.2,46.7l1.9-2.9c-2.6-2.1-6-6.2-10.3-12.2l-2.1,0.7
		c-0.3-0.5-0.2-1.7,0.5-3.6C145.6,148.9,143.5,139.3,144.1,128.8L144.1,128.8z"/>
	<path class="st0" d="M148.7,128.8H146c-0.5,10.1,1.4,19.1,5.3,26.8l2.4-1.9c-3.3-6.4-5-12.4-5-18V128.8L148.7,128.8z"/>
	<polygon class="st0" points="157.6,133.1 157.6,128.8 155,128.8 154.9,133.6 	"/>
	<path class="st0" d="M162.8,147.6l2.7-2.2c3.8,0.2,7-1.9,9.6-6.4c1.5-1.5,3.8-2.2,6.7-2.1l-0.5-4.3l-29,2.4l-2.9,0.5l26.1,1.7
		l-2.1,2.1l-13.4-1.5C160.5,141.4,161.6,144.6,162.8,147.6L162.8,147.6z"/>
	<path class="st0" d="M159.2,150.6l2.1-1.5c-1.2-2.7-2.4-6.7-3.4-11.9l-2.4-0.3C155.9,141.7,157.1,146.4,159.2,150.6L159.2,150.6z"
		/>
	<path class="st0" d="M164,149.6c-1.4,1.5-2.7,2.4-4.3,2.6c-5,1.7-7.9,4.1-9.1,7c2.2-2.2,5.7-3.4,10.3-3.6c1.2,0,2.9-1,4.8-2.9
		c1.7-1.9,3.4-2.7,5-2.4c3.3,0.2,5.5-1.4,6.9-4.6c1.2-1.2,2.9-1.7,5.3-1.2c-1.2,2.2-2.9,3.8-4.8,4.5c-0.9,2.1-2.6,3.4-5.2,4
		l-6.4,1.5c0.9,2.2,2.6,4.3,5.2,6.2l13.2-17l-2.2-4.1c-4,0.2-6.2,1-6.7,2.2c-2.1,3.6-4.8,5.3-8.2,5
		C166.6,146.9,165.4,147.7,164,149.6L164,149.6z"/>
	<path class="st0" d="M154.5,143.4l-1-6.5l-3.1-0.5c0.3,5.7,1.9,11.2,4.8,16.5l2.2-1.2L154.5,143.4L154.5,143.4z"/>
	<path class="st0" d="M143.5,164.9l-3.8-7l-15.5,6.9c-1,6.5-3.6,11.9-7.6,15.8L143.5,164.9L143.5,164.9z"/>
	<path class="st0" d="M156.4,158.7l-2.9,0.9c2.2,4,5.3,7.9,9.4,11.9l2.1-2.6C162.6,167.3,159.7,164,156.4,158.7L156.4,158.7z"/>
	<polygon class="st0" points="152,176.1 147,169.7 127.7,184.7 138.6,187.9 	"/>
	<polygon class="st0" points="169.1,164 170.5,162 165.4,155.8 162.8,157.2 	"/>
	<path class="st0" d="M161.2,158l-3.1,0.3l7.7,9.1l1.9-1.9C165.7,163.9,163.5,161.3,161.2,158L161.2,158z"/>
	<path class="st0" d="M171.7,169.4l-1.5,1.5c2.6,2.1,5.8,4,10.1,5.8l1.4-2.2C178.4,173.3,175,171.6,171.7,169.4L171.7,169.4z"/>
	<path class="st0" d="M168.3,172.1l-2.1,1.9c1.5,2.1,5,4.1,10.3,6l2.6-1.7L168.3,172.1L168.3,172.1z"/>
	<path class="st0" d="M137.4,151.3l-1.9-8.1l-9.3,1.5c0.7,3.6,0.9,6.7,0.3,9.6L137.4,151.3L137.4,151.3z"/>
	<polygon class="st0" points="137.2,188.8 133.1,187.4 116.1,202 112.5,207.2 117.3,206.5 	"/>
	<polygon class="st0" points="130.5,186.5 126.2,185.5 119.7,190.3 118.6,196.3 	"/>
	<polygon class="st0" points="118.6,183.6 118.3,184.3 120.7,185.9 122.2,184.5 	"/>
	<polygon class="st0" points="127.2,212 128.6,214.2 147,193.1 144.9,192 	"/>
	<polygon class="st0" points="122.2,207.2 125.2,209.2 142.5,191 139.4,189.8 	"/>
	<path class="st0" d="M161.2,178.5l-2.6,1.9c8.8,7.6,19.6,12.2,32.6,13.7c12.9,1.5,24.6-0.2,35.2-5.3l-0.2-3.3
		c-16,8.1-33,8.8-50.7,1.7C170.5,185,165.7,182.1,161.2,178.5L161.2,178.5z"/>
	<polygon class="st0" points="161.6,184.7 157.5,181.6 147.7,192.6 153.3,195.6 	"/>
	<polygon class="st0" points="170.3,189.8 165.9,187.2 158.5,198.6 163.8,202.3 	"/>
	<polygon class="st0" points="168.8,207 164,203 144.6,240 152.5,247.2 152.6,246.8 	"/>
	<path class="st0" d="M158,198.7l-4.6-2.6L127.7,230l-1.2,1.9c2.6,0.3,5.5,1.2,8.9,2.6L158,198.7L158,198.7z"/>
	<path class="st0" d="M165,175.4l-2.4,1.9c3.4,2.7,7.4,5.2,11.9,7.2l1.2-2.4C171,179.8,167.6,177.6,165,175.4L165,175.4z"/>
	<path class="st0" d="M231.5,147.7c-1.7-1.4-3.1-1.9-4.3-1.7c-4.6,1.5-8.8,0.7-12.2-2.6l-2.9,2.9l31.1,32.3L220,147.9l1-0.3
		l8.8,10.8c2.9-3.1,4.8-6.2,6-9.4C234.6,149.4,233,148.9,231.5,147.7L231.5,147.7z"/>
	<path class="st0" d="M240.9,148.4l-2.4-0.5c-2.2,4.6-4.5,8.2-6.7,10.8c-1.2,0.9-1,1.7,0.5,2.9C236.1,157.7,239,153.2,240.9,148.4
		L240.9,148.4z"/>
	<path class="st0" d="M212.4,151.9l1.2,0.9c0.3,1.2,1.9,3.3,4.5,6.2c2.1,2.4,3.1,4.6,3.1,6.7l3.4-2.6l-14.6-15l-3.3,1.7l2.2,5.7
		c1,2.2,2.2,4,3.6,5.2c1.5,1.2,2.6,3.4,3.1,6.7s1.2,5.7,2.4,6.9c7,4.3,10.3,8.9,9.6,13.7c1.4-5.7,1-9.6-0.9-11.7
		c-5.5-3.3-8.1-7.9-7.7-14.1l-4-4.8C213.1,155.5,212.2,153.6,212.4,151.9L212.4,151.9z"/>
	<path class="st0" d="M214.5,173.5l-0.7-2.4l-6.7,1.7l-0.2,2.6C209.8,175,212.2,174.4,214.5,173.5L214.5,173.5z"/>
	<polygon class="st0" points="223.7,171.1 225.8,173 231.1,169.2 229.8,167.3 	"/>
	<path class="st0" d="M221.7,167.3l0.9,2.4l5.5-3.8c-0.9-1.2-1.5-1.7-2.1-1.5L221.7,167.3L221.7,167.3z"/>
	<path class="st0" d="M233.7,163.2c0.2,0.9,0.7,1.5,1.5,2.1c2.6-2.7,5.3-6.4,7.9-10.6c1.4-2.6,1.2-4.3-0.5-5.2
		C240.1,155.3,237.1,159.9,233.7,163.2L233.7,163.2z"/>
	<polygon class="st0" points="229.4,176.1 234.6,172.3 232.7,170.4 227.4,174.2 	"/>
	<polygon class="st0" points="238.2,175.7 235.9,173.5 229.9,178.1 230.3,181.4 	"/>
	<path class="st0" d="M236.5,166.8c0.2,0.5,0.7,1.4,1.5,2.4c3.6-3.6,6.9-8.2,9.8-13.9l-2.1-1.7C242.8,158.9,239.7,163.2,236.5,166.8
		L236.5,166.8z"/>
	<path class="st0" d="M239.2,170.4c0,0.3,0.5,1.2,1.7,2.6c5.2-4.8,8.9-10,11.2-15.3l-2.7-1.4C247.1,161,243.7,165.6,239.2,170.4
		L239.2,170.4z"/>
	<path class="st0" d="M197.5,153.6l-0.2-2.7c-1.9-0.3-3.3-0.9-4.5-1.4c-1.5,1.9-2.2,4.3-2.1,7.4c0.2,3.1-0.2,5.2-1,6
		c-3.3,2.4-5.2,6.4-5.8,11.9c-0.3,1.5-1.9,3.6-4.6,5.8c-2.6,1.9-3.8,4-3.6,6.2c0.9-1.4,2.2-2.6,4.5-3.8l4.6-3.1
		c1.4-1.2,2.4-3.6,2.9-6.9c0.3-3.1,1.5-5.2,3.4-6.2c2.6-1,3.6-3.3,3.3-6.5c-0.3-3.8,0.3-6.2,1.9-7.2l1,3.3l-0.9,6.7
		c-0.2,1.2-1.2,2.6-2.9,4c-1.9,1.4-3.1,2.6-3.3,3.8l11,0.9L197.5,153.6L197.5,153.6z"/>
	<path class="st0" d="M205.5,150.1l-4.6,0.9c0.3,6.7,1.7,19.6,4,39l0.7-30.1l0.3-0.5l2.1,2.1l-0.5,9.6l6.5-1.9
		c-0.5-3.3-2.9-6.7-6.9-10c-1-0.9-1.5-2.2-1.5-4.3v-4.8H205.5z"/>
	<path class="st0" d="M190.8,148.6l-4.3-3.4L157.6,180l28.3-26.1l0.2,3.4l-8.9,7.9c3.1,1.7,5,2.6,5.7,2.7l3.6-4.5
		c1-1.2,1.4-3.1,0.9-5.7c-0.5-2.6-0.3-4.5,0.3-5.7L190.8,148.6L190.8,148.6z"/>
	<path class="st0" d="M182.2,169.7c-1.7-0.5-4-1.5-6.5-3.4c-0.9,0.5-1.7,1-2.2,1.9c4,2.6,6.7,4,8.2,4.3L182.2,169.7L182.2,169.7z"/>
	<polygon class="st0" points="189.6,172.1 189.1,174.7 201.8,176.1 201.4,173.5 	"/>
	<path class="st0" d="M206.6,181.7l-0.3,3.3c6.7-1,12.2-2.7,16.1-5l-3.1-1.7C214.8,180,210.5,181.2,206.6,181.7L206.6,181.7z"/>
	<path class="st0" d="M204.3,196.3h-6.2l-1.9,47.2l4.1,10.5c1.5-3.6,3.3-6.9,5.2-9.4L204.3,196.3L204.3,196.3z"/>
	<path class="st0" d="M203.3,185.2l-0.5-2.6c-4,0.5-9.3-0.2-16.1-1.7l-2.9,2.4C191.8,185.3,198.3,186,203.3,185.2L203.3,185.2z"/>
	<polygon class="st0" points="202.5,180.5 202.3,178.1 188.7,176.9 187.7,179.2 	"/>
	<polygon class="st0" points="206.9,177.3 206.7,180 217.4,177.1 215.5,175.2 	"/>
	<path class="st0" d="M205.9,186.7l-0.3,2.7c6.2-0.5,12.9-2.4,19.9-5.5l-1.5-2.6C218.6,184,212.6,185.9,205.9,186.7L205.9,186.7z"/>
	<path class="st0" d="M204,189.8l-0.5-3.1c-5.8,0.9-13.1,0.2-21.6-2.2c-1.7,0.5-2.7,1.2-3.3,1.7C187.9,189.5,196.3,190.7,204,189.8
		L204,189.8z"/>
	<polygon class="st0" points="180.8,193.8 175.3,191.9 169.3,206.8 175,212.7 	"/>
	<polygon class="st0" points="192.8,196.3 187,195.1 181.3,219.7 188.2,229.1 188.4,229 	"/>
	<path class="st0" d="M228.9,187.4c3.4-1.4,7.7-4.3,12.9-8.6l-2.4-2.1l-9.3,6.9L228.9,187.4L228.9,187.4z"/>
	<polygon class="st0" points="237.7,184.5 232.2,187.9 238.7,199.4 245,194.6 	"/>
	<path class="st0" d="M228.6,211.8l-1-1.7l-5.7,6.2l13.6,53.6c3.3-7.4,6-12.5,8.2-15.8L228.6,211.8L228.6,211.8z"/>
	<polygon class="st0" points="238.5,200.3 233.9,204.6 251.7,243.1 259.3,236.4 259.3,236 	"/>
	<path class="st0" d="M228,209.2l5.3-4.8l-6.2-13.7l-5.2,2.1C223.9,198.7,226,204.2,228,209.2L228,209.2z"/>
	<path class="st0" d="M221.5,216.1l-5.7-21.5L209,196l4.5,31.1C215.8,223.1,218.6,219.4,221.5,216.1L221.5,216.1z"/>
	<path class="st0" d="M258.4,129.2h-3.1c0,4.5-0.3,8.9-1.2,13.4l-1.9,6.4c-1,2.6-0.7,4.5,1.2,5.7C257.4,146.2,259,137.6,258.4,129.2
		L258.4,129.2z"/>
	<path class="st0" d="M253.3,129.2h-2.6c0.3,5.7-0.2,11.2-1.7,16.3l1.5,3.4C253.1,141.5,254,134.8,253.3,129.2L253.3,129.2z"/>
	<path class="st0" d="M248.7,129.2h-2.6l-1,12.9l2.4,1.9C248.7,136.7,249,131.8,248.7,129.2L248.7,129.2z"/>
	<path class="st0" d="M262.9,129.2H260c0.3,8.9-1.4,18-5.2,27.1l0.7,2.4l-1.9-0.3c-2.2,4.6-6,10.1-11.5,16.1l1.9,2.1
		C257.4,163.4,263.8,147.6,262.9,129.2L262.9,129.2z"/>
	<path class="st0" d="M287.5,103.4h-0.3l-51.7,24l45.9,0.5l1.4,1.7l3.8-0.3c0.7-0.9,1-1.9,0.9-3.3l-2.1-2.1c-1.5-0.5-2.7-0.2-4,1.2
		l-17.9-0.3c3.3-6.7,9.3-12.5,17.7-17.5l4.8-0.3C287.3,105.8,287.8,104.6,287.5,103.4L287.5,103.4z"/>
	<path class="st0" d="M279.1,168.3l1,0.2c-1.7-6-2.6-10.1-2.7-12.5l-0.5-0.7l-14.9-4.5l-3.1,7.9L279.1,168.3L279.1,168.3z"/>
	<polygon class="st0" points="263.8,144 276.3,145.8 277,135.2 265,134.7 	"/>
	<polygon class="st0" points="249.2,175.4 248.1,175 243.5,180 253.3,190.5 261.5,186.7 	"/>
	<polygon class="st0" points="255.5,165.1 252.1,170.4 270.1,183.8 283.3,181.6 283.2,181.6 	"/>
	<path class="st0" d="M263.8,187.4c-1.4,0.3-2.1,0.9-2.2,1.4l11.7,10.6l6.5,1.5L263.8,187.4L263.8,187.4z"/>
	<path class="st0" d="M278.4,189.8l0.2-3.3c-2.1-2.2-4.3-2.6-6.5-1.4L278.4,189.8L278.4,189.8z"/>
	<path class="st0" d="M270.6,187.1l-4.6-0.3l17.5,14.8c-1.5-1.9-2.7-4.5-4-7.4L270.6,187.1L270.6,187.1z"/>
	<path class="st0" d="M252.8,191l-6.9,4.1l24.9,34c6-2.6,10.5-3.8,13.6-4v-0.3L252.8,191L252.8,191z"/>
	<polygon class="st0" points="259.1,189.5 256.9,190.7 265,199.3 269.3,198.9 	"/>
	<path class="st0" d="M280.8,184.7c1.4-0.9,2.2-1.4,2.6-1.2l-4.8,0.5C279.1,185,279.9,185.2,280.8,184.7L280.8,184.7z"/>
	<path class="st0" d="M264.6,245.5l-3.1-3.1c-2.2-0.7-4.1-0.3-5.8,1c-2.1,1.9-2.6,4-1.7,6.4c0.7,1.9,2.2,3.1,4.5,3.6
		c1.5,0.2,3.4-0.3,5.3-1.9C265.3,249.6,265.5,247.5,264.6,245.5L264.6,245.5z"/>
	<path class="st0" d="M203.1,256.6c-0.9-0.9-2.1-1.4-3.6-1.4c-1.7,0.2-2.7,1.2-3.1,2.7c-0.5,1.5,0,2.9,1.2,4
		c0.9,0.9,2.1,1.2,3.8,0.9l2.6-2.6C204.3,259,204,257.8,203.1,256.6L203.1,256.6z"/>
	<path class="st0" d="M144.7,243.9c-1.7,0-2.9,0.5-3.8,1.4c-1.5,1.5-2.2,3.1-2.1,4.6c0.2,1.5,0.7,2.7,1.9,4c1.9,1.4,3.8,1.7,5.8,1
		l3.3-3.3c0.9-2.7,0.3-4.8-1.4-6.4C147.7,244.4,146.3,243.9,144.7,243.9L144.7,243.9z"/>
	<polygon class="st0" points="169,270.7 169.3,270.7 181.2,220 175.1,213.7 161.6,258 	"/>
	<path class="st0" d="M27.8,13.1L31,9.5C27.8,6.5,24.2,5,19.9,5S12,6.4,9.2,9.3s-4.1,6.4-4.1,10.5s1.4,7.6,4.1,10.5
		c2.9,2.7,6.4,4.1,10.5,4.1c4.5,0,8.2-1.7,11.5-5l-3.3-3.3c-2.6,2.6-5.3,3.8-8.1,3.8c-2.7-0.2-5-1.2-6.9-3.1s-2.7-4.3-2.6-7.2
		c-0.2-2.7,0.7-5.2,2.6-7c1.9-1.9,4.1-2.9,6.9-2.9C22.5,9.6,25.2,10.8,27.8,13.1L27.8,13.1z"/>
	<path class="st0" d="M60.2,5.5H47.5v28.3h5V24h6.2l7,9.8h6L64,23.2c4.5-1.4,6.7-4.3,6.7-8.6C70.7,8.6,67.3,5.5,60.2,5.5L60.2,5.5z
		 M59.7,10c4,0,6,1.5,6,4.8s-1.9,4.8-5.8,4.8h-7.4V10H59.7L59.7,10z"/>
	<polygon class="st0" points="41,5.5 36.2,5.5 36.2,33.9 41,33.9 	"/>
</g>
</svg>
