<?xml version="1.0" encoding="utf-8"?>
<!-- Generator: Adobe Illustrator 21.1.0, SVG Export Plug-In . SVG Version: 6.00 Build 0)  -->
<svg version="1.1" id="Layer_1" xmlns="http://www.w3.org/2000/svg" xmlns:xlink="http://www.w3.org/1999/xlink" x="0px" y="0px"
	 viewBox="0 0 400 166" style="enable-background:new 0 0 400 166;" xml:space="preserve">
<style type="text/css">
	.st0{fill:#242428;}
</style>
<g>
	<path class="st0" d="M135.1,34.2c4,8.1,6.4,17.1,7.3,26.6H99c-1.1-7.4-4.9-14.6-11.9-18.6c-7.9-4.2-19.6-3.3-26.6,2.3
		C48,55.7,47.4,72.9,48.7,89.3c1.7,10.9,5.5,22.9,16.8,27.9c7.8,3,18.7,2.9,25-3.5c5.2-5.2,7.3-11.8,8.6-18.7H143
		c0,23-14.5,44.7-35.6,54c-25.1,11-59.6,7.6-80.1-10.9C1.9,115.4-1.7,76,9.6,45.6C19.1,19.7,46.2,3.8,73.1,3.4
		C98.5,2.6,123.2,10.7,135.1,34.2L135.1,34.2z"/>
	<path class="st0" d="M386.9,34c1.8,5.2,2.8,10.8,3,16.6h-42.2c0.4-4.1-0.8-8-4.2-10.6c-6.7-5.6-18-5.7-25.6-2.2
		c-3.5,2.2-4.8,4.2-4.8,7.3c0.4,5.9,7,8.5,11.6,10.4c19.9,6.7,42.2,7.7,59.1,21.5c11.9,10,14.1,26.2,10.6,41
		c-4.1,20.8-26.3,32.8-45.3,35.6c-24.9,4.1-50.8,1.1-69.3-14.8c-10.3-9.6-14.5-21.8-14.5-35.7H310c0,6.8,1.7,13.6,8,17.1
		c8.3,3.9,20.8,4.6,28.6-0.6c3.2-2.6,4.9-6,4.7-10.2c-0.3-7-8.3-8.5-13.2-10.6c-18.4-6.6-38.5-8.6-54.7-20.3
		c-12.3-9.2-14.2-24.8-11.2-38.9c2.6-15,17.3-27.8,31.1-32c22.3-6.8,51.2-5.6,70,8C379.9,20.5,384.3,27.1,386.9,34L386.9,34z"/>
	<path class="st0" d="M206.5,94.7c0,0.1,0.3,0.1,0.3,0l23.3-87.8H276l-45.2,144.6v0.2h-50L137.6,6.9h45.1L206.5,94.7L206.5,94.7z"/>
</g>
</svg>
