<?xml version="1.0" encoding="utf-8"?>
<!-- Generator: Adobe Illustrator 21.1.0, SVG Export Plug-In . SVG Version: 6.00 Build 0)  -->
<svg version="1.1" id="Layer_1" xmlns="http://www.w3.org/2000/svg" xmlns:xlink="http://www.w3.org/1999/xlink" x="0px" y="0px"
	 viewBox="0 0 400 322" style="enable-background:new 0 0 400 322;" xml:space="preserve">
<style type="text/css">
	.st0{fill:#242428;}
</style>
<g>
	<g>
		<path class="st0" d="M50.9,251.4c-4.8-4.8-11.7-7-19.2-7H5.4v72.8h26.3c7.6,0,14.4-2.2,19.2-7c8.2-8.2,7.4-18.8,7.4-29.8
			C58.3,269.6,59.1,259.5,50.9,251.4z M41,300c-2.5,3-5.7,4.5-10.6,4.5H19.6V257h10.7c4.9,0,8.2,1.5,10.6,4.5
			c2.7,3.3,3.1,7.9,3.1,18.9C44.1,291.5,43.7,296.8,41,300z"/>
		<rect x="71.4" y="244.4" class="st0" width="14.2" height="72.8"/>
		<path class="st0" d="M152.1,266.7c0-12.2-8.8-22.3-23.6-22.3H100v72.8h14.2v-29h10.2l14.2,29h16.5l-16.3-31.4
			C145.9,283.3,152.1,276.9,152.1,266.7z M127.6,276.3h-13.4v-19.2h13.4c6.2,0,10.3,4,10.3,9.6S133.8,276.3,127.6,276.3z"/>
		<polygon class="st0" points="164.2,317.2 212.2,317.2 212.2,304.5 178.5,304.5 178.5,286.9 207.2,286.9 207.2,274.2 178.5,274.2 
			178.5,257.1 212.2,257.1 212.2,244.4 164.2,244.4 		"/>
		<path class="st0" d="M247,256.5c6.9,0,10.7,4.1,12.3,10.3h14.4c-2.5-14.8-12.8-23-26.8-23c-7.8,0-14.3,2.7-19.6,8
			c-3.2,3.2-5.1,6.7-5.9,10.9c-0.8,4.1-1.2,10.1-1.2,18.1s0.4,14,1.2,18.1s2.8,7.8,5.9,10.9c5.3,5.3,11.9,8,19.6,8
			c13.9,0,24.3-8.2,26.8-23h-14.4c-1.5,6.2-5.4,10.3-12.3,10.3c-3.9,0-7-1.2-9.1-3.8c-3-3.2-3.6-6.4-3.6-20.6
			c0-14.1,0.6-17.4,3.6-20.5C240.1,257.7,243.2,256.5,247,256.5z"/>
		<polygon class="st0" points="277.6,257.1 296.6,257.1 296.6,317.2 310.8,317.2 310.8,257.1 329.8,257.1 329.8,244.4 277.6,244.4 
					"/>
		<polygon class="st0" points="380.8,244.4 366.2,291.9 351.6,244.4 336.8,244.4 360.9,317.2 371.5,317.2 395.6,244.4 		"/>
		<path class="st0" d="M377.8,4h-54.4c36.2,37.6,43.6,84.8,17.2,125.9c-29.8,43.1-113.4,82.2-213.9,93.7h253.7
			c9.4,0,15.2-6.1,15.2-14.2c0,0,0-189,0-192.3C395.7,12.3,392.3,4,377.8,4z"/>
		<path class="st0" d="M20,223.5h34.5c146-7.2,217.7-56.9,221.5-107.2c0.1-1.8,0.2-3.6,0.2-5.4C275.2,60.8,210,3.5,78.8,4.2h-58
			c-9.3,0-15.2,6.8-15.2,16v188.1C5.6,214,10,223.5,20,223.5z"/>
	</g>
</g>
</svg>
