<?xml version="1.0" encoding="utf-8"?>
<!-- Generator: Adobe Illustrator 21.1.0, SVG Export Plug-In . SVG Version: 6.00 Build 0)  -->
<svg version="1.1" id="Layer_1" xmlns="http://www.w3.org/2000/svg" xmlns:xlink="http://www.w3.org/1999/xlink" x="0px" y="0px"
	 viewBox="0 0 400 115" style="enable-background:new 0 0 400 115;" xml:space="preserve">
<style type="text/css">
	.st0{fill:#242428;}
</style>
<g>
	<path class="st0" d="M394.2,50.9c-1.7-1.7-4-3.4-6.4-2C381,52.5,375.3,59,370.3,65l-2,1.7l-0.3-0.3c0.7-5.4,3.4-9.8,6.1-14.5
		c0.7-2,2.7-4.4,1-6.7c-1.7-0.3-2.4,1.3-3.7,2c-6.7,8.8-13.5,17.9-7.8,29c-2.7,6.4-4.7,13.1-6.1,20.6c-0.7,4-2.4,8.8,0.3,12.5
		c1.7,2,3.7,3.7,6.1,3c2-9.4,4.4-18.5,7.1-27.3l1.3-1.7c3,0,6.1-0.3,8.8-1.7c4.7-2,9.4-5.1,12.5-9.4c0.3-1,1.3-2.7,1.7-3.7
		C397.9,63.3,397.6,55.6,394.2,50.9L394.2,50.9z M389.5,66.4c-1.3,2-3,3.4-5.1,4.7c-2.4,1-4.4,2.4-6.7,2c0-2.4,2-3.7,2.7-5.4
		c3-4,5.4-8.4,9.4-11.8c1-0.3,1.3,1,1.7,1.7C391.8,60.6,390.8,64,389.5,66.4L389.5,66.4z M355.1,71.4c-5.1-1-9.1,1-13.8,1.3
		l-0.7-0.3c0-2.4,0.7-4.4,2-6.1c4-0.7,8.8,0.7,12.5-1.3c0.7-1.3,0.7-3,0-4.4c-2.4-1.7-6.1-0.7-9.1-1l-1-1c0-1.3,0.3-3,1.7-3.7
		c4.4-0.3,9.1,0,13.5-1c0.7-0.3,2-1.3,1.7-2.7c-0.7-2-2.7-4-4.7-5.1c-8.8-1.3-16.2,1-22.6,2l-1.7,0.7c-0.7,0.7,0,1.3,0,2
		c1,2.7,4.4,1.7,5.4,4c-0.7,2-1,5.1-3.7,5.7c-1.3,0.3-2,1.7-1.3,2.7c1.7,4.4-2.4,7.1-2,11.1c0,3,1.7,6.1,4,8.1
		c4.4,3,9.8,0.3,13.8-1.3c2.7-2,7.8-3,8.1-7.1C356.4,73.1,356.1,71.8,355.1,71.4L355.1,71.4z M320.3,79.2c2,1,3.7-0.3,5.4-1.3
		c7.1-6.7,4-19.2,1.3-27c-2-3.7-4-8.8-8.8-10.5c-1,0.3-1.3,1.3-1.3,2.7c1.7,7.8,5.1,15.2,4.7,23.9c0,0.3,0,0.7-0.7,0.7
		c-5.1-6.1-7.8-13.8-14.5-18.9c-1.7-0.7-3.4,1.3-3.4,1.3c-3.4,7.1-4.4,15.5-5.1,23.3c0.7,2.7,0.7,6.7,3.7,8.1c1.3,0.3,2.7,0,3.4-1
		c2.4-5.4,1-11.5,1.7-17.2c0.3-0.7,0.3-2,1.3-1.7C311.9,67.7,314.6,74.8,320.3,79.2L320.3,79.2z M245.8,56.6
		c-4.4-17.2-21.6-32-37.1-39.1C193.2,10.7,176,5,157.8,7c-5.1,0.7-10.8,1-14.5,4.7c-1,1.7-2.7,4-1.7,6.1c2.4,1,6.1,1.7,8.1,0
		c0.3-1.7-2-1.7-2.7-2.7c0.3-0.3,0.7-0.3,1-0.7c12.1-2,26-0.7,37.4,2.7c18.2,6.1,37.1,14.5,47.5,32.7c3.4,5.7,3.7,14.5-0.7,19.9
		c-10.1,10.5-25.6,10.8-39.4,9.1c-0.7,0-1.7-0.7-2-1.7c-0.3-6.7-0.7-13.8-0.3-20.9l0.3-0.7c4.7-1,9.4,0.3,13.8,1
		c3,1.3,6.7,1,9.4,3.4c0,2.4-3.4,3.4-3.7,5.4c1,0.7,2.7,1,4,1c2,0.3,3.4-1,5.1-2.4c1.7-1.3,2.4-3.4,2.4-5.4
		c-2-8.8-12.1-10.5-19.9-11.8c-3.7-0.7-8.1,0.3-11.1-1.3c-1.7-5.4,0.3-11.8-4.7-16.2c-0.3-0.3-1.3-0.3-2,0
		c-2.7,5.4-1.7,12.5-3.4,17.9L170,49.9c-4.7,2-10.5,3.7-13.1,8.8c-0.7,2.7,0.7,5.1,2,6.7c1.3,2,3,3.7,4.7,5.1
		c4.4,4.4,9.8,7.8,14.8,10.5c4,1.3,1.7,6.4,4.4,9.1c1.7,1.7,3.7,0.7,5.4,0.7c2-0.7,2-2.7,3-4.4c14.5,2.7,30.7,2,42.8-5.7
		C242.1,74.8,246.5,66.4,245.8,56.6L245.8,56.6z M180.1,74.8c-3.4,0-6.1-2-9.1-3.4c-1.7-1-3.4-2.4-5.1-3.7c-2.4-1.7-4.4-3.4-6.1-5.7
		c-0.7-1.3,0.7-2.7,1.7-3c6.1-1.7,12.5-3.4,18.9-3l0.7,0.7C180.1,62.3,181.4,69.1,180.1,74.8L180.1,74.8z M151.8,53.9
		c1-3.4-0.3-6.4-2.4-9.1c-1.7-1.3-4.7-1.7-7.1-1c-0.3,0.3-0.7,0.3-1,0.3c-2.4,1.3-4.7,4-7.1,5.7c-3.7-1-7.4-2-10.1-4.7
		c-0.7-0.7-0.3-2.7-1.7-2.7c-1.7,1.7-2.7,4-2.4,6.4c2,4.4,7.1,6.1,10.5,8.4L127.8,69c-0.3,6.4-1.3,13.8,1.7,19.2
		c1.3,2,3.4,3.4,5.7,3.7c1.3,0,2.4-0.7,2.7-2c-0.7-9.4-0.7-20.2,1.3-29.3l1-1.3c2.4-0.3,5.1-0.3,7.1-1.3
		C149.1,57.3,150.8,55.6,151.8,53.9L151.8,53.9z M145.7,49.9c-1,0-1.7,0.7-2.7,0c0-0.7,0.7-1.7,1.3-2c0.3-0.3,0.3-0.3,0.7-0.3
		c0.7-0.3,1.7-0.3,2,0.3C147.7,48.8,146.4,49.2,145.7,49.9L145.7,49.9z M103.5,81.2c1.7-8.1-0.7-16.5-1.7-23.9
		c-1-5.7-2.4-11.1-4.7-16.2c-1-0.7-2-1-3.4-0.7c0,0-7.4,7.1-12.8,20.2c-0.7,1-1,2.7-2.7,2.7c-0.7-0.3-1.7-0.3-2-1.3
		c3.7-10.8,4.4-24.3,0.7-35.4C73.5,17.1,66.5,6,56,2.6c-0.7-0.3-0.7,0.3-1,0.7c4,3.7,7.4,8.4,9.8,13.1C72.5,32,70.2,52.5,62.1,67
		c-4.4,6.7-11.5,12.8-19.6,11.5c-2.7-0.3-5.1-2.7-5.7-5.4c1.3-1.3,3-2.7,4.7-4.4c1.3-1.7,2.7-3,3.7-4.7c5.4-6.4,8.1-15.5,6.1-23.6
		c-0.3-1.7-0.7-3.7-1.7-4.7c-1-2.4-3.4-3.4-5.4-3.7c-6.1-0.3-10.8,2.7-14.8,7.8c-7.8,8.4-5.1,22.9-3.4,33.4c-2.4,2-5.7,2.4-8.8,1
		c-4.7-3-4.7-8.8-5.1-13.8C12.8,42.2,19.2,26,33,13.2v-1.3c-0.3-1.3-1.7-0.7-2.4-0.7c-5.4,2-11.1,7.1-14.2,11.5
		c-3.7,3.7-6.1,8.4-8.4,12.8C3.4,46.8-1,63.7,7.8,74.8c3.7,4,9.1,6.1,14.8,5.1c2,0,3.7-2,5.7-1.3c3,5.7,8.8,9.1,14.8,9.4
		c13.8,1,26-11.1,32-22.3c5.4,3-1,7.4-0.3,11.8c0.3,2.4,0.7,5.1,3,6.1c1.3,0.3,3,0.7,4-0.7c2-1.7,4.7-11.1,4.7-11.1l4.7-0.3h3.4
		c2.4,0.7,1.3,3.7,2,5.7c0.7,2.4,2.7,5.1,5.4,5.4L103.5,81.2L103.5,81.2z M34.8,63.7c-0.7-7.8,0.7-15.5,2.7-22.6
		c0.7-1.7,1.3-3.4,2.7-4.4c1.7,0,2,1.3,2.4,2.7c0.3,0.7,0.3,2,0.3,3c0.7,8.4-2,15.8-7.4,21.9C35.1,64.3,34.8,64,34.8,63.7L34.8,63.7
		z M94.1,62.7c-0.7,0-1.3,0-1.7,0c-1,0-1.3,0-2-0.7c0.7-2.4,1.3-4.7,3-6.7c1.3,0.7,1,2.7,1.7,3.7C94.8,60,96.1,62.7,94.1,62.7
		L94.1,62.7z M113.3,81.2c3.7-0.7,7.1-2,9.8-4.7c2-2.4,4.7-5.1,3.4-8.1c-0.3-1.3-1.3-1.7-2.7-1.3c-3.4,1-6.4,3-10.5,3.4
		c-1.3-1.3-0.3-3.4-0.3-5.1c0.7-7.8,4.7-14.2,3.7-21.9c-0.3-1-1-1.7-2-1.7c-5.1,0.3-7.4,13.1-8.8,19.2c-1.3,5.7-3,12.5,1,17.2
		C108.6,80.2,111,81.2,113.3,81.2L113.3,81.2z M254.3,46.8c-0.7-0.7-2.4-0.3-2.7,0.7c-2.4,8.4-2.4,17.9-2,26.3
		c0.3,2.7-0.3,6.1,2,7.8c1.7,0.7,4,1.3,5.4,0l1-1.3c0.7-9.8-0.3-19.6-1-29C256.6,49.5,255.9,47.8,254.3,46.8L254.3,46.8z
		 M243.5,40.4c0.7,1.3,1.3,2.7,3,2.4c1-0.7,1.7-1.7,2.4-2.4c3.7,0,7.8,1,11.5-0.3c3-1.3,6.7-3.7,9.8-6.1c3.7-3,6.1-6.7,6.1-11.5
		c-0.3-1.7-1.7-3.7-3.4-4.4c-3,0-4.7-3.4-7.8-4c-7.8-1.3-14.2,1-19.6,6.7c-1,0.7-2,1.7-2.7,2.7c-2.7,3-3,7.1-1.3,10.1
		C243.1,35.7,242.5,38,243.5,40.4L243.5,40.4z M255.9,29.6c4-3.7,8.1-8.1,13.8-7.1c0.7,0.3,1,1,1,1.7c0,2.7-2,5.1-4,6.4
		c-0.7,0.7-1,0.7-1.7,1c-3.4,1.3-7.4,3-11.5,2C253.3,32.3,255.3,31,255.9,29.6L255.9,29.6z M247.9,25.2c1-1,2-1.7,3-2.4l2-0.7
		c-1.3,2.7-4,4.7-6.1,7.1h-0.3C246.2,27.9,247.2,26.2,247.9,25.2L247.9,25.2z M260.7,56.9c0,2,1,3.4,2.4,4.7
		c5.4,2,12.1,1.3,18.2,2.4c3.4,0.7,6.7,0.7,9.1,3.4c0.7,0.7,0,2-0.7,2.7c-5.1,2-10.5,3.4-16.2,3.7c-2.4-0.3-5.1,0-6.7-2
		c-0.3-0.7-0.3-1.7,0.7-2.4c5.1-2,8.8,3,13.5,2.4c2.4-0.3,5.4-0.7,6.4-3.4c-1-2-3.4-1.7-5.1-2.7c-5.4-1.3-12.8-2.7-17.5,1
		c-1.3,1.3-1.7,3.4-2,5.4c1.7,4.7,6.4,7.1,10.8,8.8c7.1,2,15.2,0.7,20.6-3.7c3.4-2.4,3.4-6.7,3-10.5c-4-10.8-17.9-6.7-27-9.4
		c-0.3-0.3-1.3-0.7-1-1.3c6.4-2.4,14.2-2.4,21.2-3c2.4,0,4.7-0.3,6.7-2c0.7-1,1-2.4,0-3c-8.8-3.7-20.6-2.4-29,0.7
		C263.4,50.2,260.7,53.6,260.7,56.9L260.7,56.9z"/>
</g>
</svg>
