<?xml version="1.0" encoding="utf-8"?>
<!-- Generator: Adobe Illustrator 21.1.0, SVG Export Plug-In . SVG Version: 6.00 Build 0)  -->
<svg version="1.1" id="Layer_1" xmlns="http://www.w3.org/2000/svg" xmlns:xlink="http://www.w3.org/1999/xlink" x="0px" y="0px"
	 viewBox="0 0 400 104" style="enable-background:new 0 0 400 104;" xml:space="preserve">
<style type="text/css">
	.st0{fill:#242428;}
</style>
<g>
	<path class="st0" d="M123.2,3.8c-7.4,0-20.5,8.5-20.5,27.5h192.7C298,3.1,278.1,3.8,278.1,3.8S127.2,3.8,123.2,3.8L123.2,3.8z
		 M101,41.3c0,0,0,5.8,0,8.9c0,6,6,13.4,15.2,13.4c5.8,0,46.7,0,46.7,0l-1.5,11.5H98.2l-3.4,26c0,0,67.4,0,74.1,0
		c6.2,0,20.7-5,23.2-19.8c0,0,2.9-24.4,3-25.3c0.4-4.7-2.5-14.7-15.4-14.7C173.1,41.3,101,41.3,101,41.3L101,41.3z M201.8,41.3h92.4
		l-2,10.4c0,0-2,11.9-16.3,11.9s-45.3,0-45.3,0l-4.3,37.5h-31.4L201.8,41.3L201.8,41.3z M299,31.3h94.9c4.3-18.4-4.6-27.5-13.9-27.5
		c-11,0-37.8,0-77.4,0L299,31.3L299,31.3z M322.4,101.1H291l6.9-59.8h31.7L322.4,101.1L322.4,101.1z M385.5,101.1h-31.4l6.9-59.8
		h31.7L385.5,101.1L385.5,101.1z M12.1,41.3h84.8l-2.8,22.3H41.9l-1.7,11.5h52.3l-3.2,26H5L12.1,41.3L12.1,41.3z M16.3,3.8h84.8
		l-3.6,27.5H13.4L16.3,3.8L16.3,3.8z"/>
</g>
</svg>
