<?xml version="1.0" encoding="utf-8"?>
<!-- Generator: Adobe Illustrator 21.1.0, SVG Export Plug-In . SVG Version: 6.00 Build 0)  -->
<svg version="1.1" id="Layer_1" xmlns="http://www.w3.org/2000/svg" xmlns:xlink="http://www.w3.org/1999/xlink" x="0px" y="0px"
	 viewBox="0 0 400 169" style="enable-background:new 0 0 400 169;" xml:space="preserve">
<style type="text/css">
	.st0{fill:#242428;}
</style>
<g>
	<path class="st0" d="M315.7,114.8c16.8,0,30.5-13.7,30.5-30.5c0-16.9-13.6-30.5-30.5-30.5c-16.8,0-30.5,13.7-30.5,30.5
		S298.9,114.8,315.7,114.8L315.7,114.8z"/>
	<path class="st0" d="M316.1,4.2c-34.9,0-64.7,22.5-75.5,53.8c0.4-3.1,0.6-6.4,0.6-10.1c0-11.6-6.6-24.2-16.1-31
		c-8.9-6.4-17.9-10.3-28.6-10.3h-69.2v157.7h64.9c12.8,0,23.8-4.7,34.7-12.6c10.1-7.2,16.6-20.1,16.6-32.3c0-0.6,0-1.1,0-1.7
		c12.6,27.6,40.4,46.7,72.7,46.7c44.1,0,79.9-35.8,79.9-80C396,40,360.2,4.2,316.1,4.2L316.1,4.2z M167.6,40.7h16.9
		c8.3,0,16.9,1.4,16.9,12c0.6,9.5-5.1,15.2-16.5,15.2L167.5,68V40.7H167.6z M199,125.5c-3.5,2.9-8.3,2.7-12.6,2.7h-18.8v-29h17.2
		c10.4,0,19.3,2.7,19.8,14.9C204.5,118,202.1,123.2,199,125.5L199,125.5z M237.1,95.1c-3.1-4.1-7.6-8-14.1-11.7
		c7.4-3.8,12.1-8.5,14.9-14.7c-1,5.1-1.5,10.3-1.5,15.6C236.4,87.9,236.6,91.5,237.1,95.1L237.1,95.1z M315.7,125.9
		c-23,0-41.6-18.6-41.6-41.6s18.6-41.6,41.6-41.6s41.6,18.6,41.6,41.6C357.3,107.2,338.7,125.9,315.7,125.9L315.7,125.9z"/>
	<polygon class="st0" points="77.7,64.4 45,64.4 45,6.2 4.8,6.2 4.8,164.4 44.8,164.4 44.8,102.7 77.5,102.7 77.5,164.4 
		118.3,164.4 118.3,6.2 77.7,6.2 	"/>
</g>
</svg>
