<?xml version="1.0" encoding="utf-8"?>
<!-- Generator: Adobe Illustrator 21.1.0, SVG Export Plug-In . SVG Version: 6.00 Build 0)  -->
<svg version="1.1" id="Layer_1" xmlns="http://www.w3.org/2000/svg" xmlns:xlink="http://www.w3.org/1999/xlink" x="0px" y="0px"
	 viewBox="0 0 400 112" style="enable-background:new 0 0 400 112;" xml:space="preserve">
<style type="text/css">
	.st0{fill:#242428;}
</style>
<polygon class="st0" points="5.3,35.7 23.9,35.7 23.9,108.1 5.3,108.1 "/>
<polygon class="st0" points="35.8,7.8 108,7.8 108,23.3 81.5,23.3 81.5,108.1 61.9,108.1 61.9,23.3 35.8,23.3 "/>
<path class="st0" d="M108.2,36.3H126v38.2c0,6.6,1.1,11.5,3.3,14.7c2.2,3.1,5.7,4.7,10.3,4.7c5.3,0,9.3-2.2,12.1-6.5
	c2.8-4.4,4.2-10.7,4.2-18.9V36.3h17.8v71.8h-16.2V94.4c-2.6,4.9-5.9,8.6-10.1,11.1c-4.1,2.5-8.9,3.8-14.4,3.8
	c-8.1,0-14.3-2.6-18.5-7.8c-4.2-5.2-6.3-12.9-6.3-23L108.2,36.3L108.2,36.3z"/>
<path class="st0" d="M258.2,65.3v42.8h-17.9V69.3c0-6.6-1.1-11.5-3.3-14.7s-5.6-4.7-10.3-4.7c-5,0-8.9,2-11.9,6
	c-2.9,4-4.4,9.5-4.4,16.5v35.7h-17.7V36.3H209v13c2.6-4.9,6-8.6,10.1-11.1c4.2-2.5,9-3.8,14.4-3.8c8.1,0,14.3,2.6,18.4,7.8
	C256.1,47.5,258.2,55.2,258.2,65.3L258.2,65.3z"/>
<path class="st0" d="M335.7,71.4v5.8h-48.6c0.5,6,2.7,10.8,6.7,14.3s9.3,5.2,15.9,5.2c3.6,0,7.1-0.4,10.5-1.3s6.7-2.2,9.8-3.9v14.2
	c-3.4,1.4-7,2.5-10.9,3.2s-8.1,1.1-12.5,1.1c-11.5,0-20.6-3.4-27-10.3c-6.5-6.9-9.7-16.5-9.7-28.7c0-10.9,3.2-19.7,9.5-26.4
	s14.6-10.1,24.7-10.1c10,0,17.8,3.2,23.4,9.7C332.9,50.6,335.7,59.7,335.7,71.4L335.7,71.4z M319.6,65.8c-0.5-6.1-2.1-10.8-4.9-14.2
	s-6.4-5.1-10.9-5.1c-4.6,0-8.3,1.7-11.3,5.1c-3,3.4-4.8,8.1-5.4,14.2H319.6L319.6,65.8z"/>
<path class="st0" d="M394.3,38.5L393,52.1c-3-1.7-6.1-2.9-9-3.7c-3-0.8-5.9-1.3-8.9-1.3c-3.2,0-5.6,0.6-7.3,1.7s-2.6,2.7-2.6,4.9
	c0,3.2,3.6,6.5,10.8,9.8c0.8,0.4,1.4,0.7,1.8,0.8c7.4,3.4,12.5,6.8,15.3,10.1c2.8,3.3,4.2,7.4,4.2,12.2c0,6.8-2.6,12.2-7.9,16.2
	c-5.2,4-12.4,6-21.4,6c-3.8,0-7.5-0.3-11.2-0.9c-3.6-0.6-7-1.5-10.3-2.7l1-14.2c3.3,1.7,6.6,3,10.1,3.9s6.9,1.3,10.2,1.3
	c3.5,0,6.2-0.6,8.2-1.8c1.9-1.2,2.9-2.9,2.9-5.1c0-3.5-4.6-7.7-13.7-12.5c-0.2-0.1-0.3-0.2-0.3-0.2c-6.8-3.5-11.4-6.8-13.8-9.8
	s-3.6-6.6-3.6-10.9c0-6.3,2.6-11.5,7.7-15.4c5.1-4,11.9-6,20.2-6c2.2,0,4.7,0.3,7.4,0.8C385.4,35.8,389.3,36.9,394.3,38.5
	L394.3,38.5z"/>
<path class="st0" d="M14.4,2.3c6.3,0,11.4,5.1,11.4,11.4s-5.1,11.4-11.4,11.4C8.1,25.1,3,20,3,13.7S8.1,2.3,14.4,2.3L14.4,2.3z"/>
</svg>
