<?xml version="1.0" encoding="utf-8"?>
<!-- Generator: Adobe Illustrator 21.1.0, SVG Export Plug-In . SVG Version: 6.00 Build 0)  -->
<svg version="1.1" id="Layer_1" xmlns="http://www.w3.org/2000/svg" xmlns:xlink="http://www.w3.org/1999/xlink" x="0px" y="0px"
	 viewBox="0 0 400 230" style="enable-background:new 0 0 400 230;" xml:space="preserve">
<style type="text/css">
	.st0{fill:none;stroke:#242424;stroke-miterlimit:10;}
	.st1{fill:#242424;}
	.st2{clip-path:url(#SVGID_2_);fill:#242428;}
	.st3{clip-path:url(#SVGID_4_);fill:#242428;}
</style>
<g>
	<line class="st0" x1="8.9" y1="147.6" x2="388.4" y2="147.6"/>
	<path class="st1" d="M12.7,159.1c0.2-0.9,0.5-1.4,0.9-1.4s0.7,0.3,1.4,1.6l14.3,29.5L43.6,159c0.4-0.8,0.7-1.3,1.2-1.3
		s0.8,0.5,0.9,1.6l4.8,32.3c0.5,3.3,1,4.8,2.6,5.3c1.5,0.5,2.6,0.5,3.2,0.5c0.5,0,0.8,0.1,0.8,0.4c0,0.4-0.6,0.6-1.4,0.6
		c-1.3,0-8.5-0.2-10.6-0.3c-1.2-0.1-1.5-0.3-1.5-0.6s0.2-0.4,0.6-0.6c0.3-0.1,0.5-0.8,0.3-2.2l-3.1-23h-0.2l-11.4,23.8
		c-1.2,2.5-1.5,2.9-1.9,2.9c-0.5,0-1-1-1.8-2.6c-1.3-2.4-5.4-10.4-6-11.9c-0.5-1.1-3.6-7.7-5.4-11.6h-0.2l-2.7,20.8
		c-0.1,0.9-0.2,1.6-0.2,2.5c0,1,0.7,1.5,1.6,1.7c0.9,0.2,1.7,0.3,2.2,0.3c0.4,0,0.8,0.1,0.8,0.4c0,0.5-0.5,0.6-1.3,0.6
		c-2.2,0-4.6-0.2-5.5-0.2c-1,0-3.5,0.2-5.2,0.2c-0.5,0-0.9-0.1-0.9-0.6c0-0.3,0.3-0.4,0.8-0.4c0.4,0,0.8,0,1.6-0.2
		c1.5-0.3,1.9-2.4,2.1-4.1L12.7,159.1L12.7,159.1z"/>
	<path class="st1" d="M96.4,195c0,1.4-0.1,1.5-0.7,1.9c-3.4,1.8-8.5,2.4-12.6,2.4c-12.8,0-24.2-6.1-24.2-20.5
		c0-8.4,4.3-14.2,9.1-17.1c5-3,9.7-3.4,14.1-3.4c3.6,0,8.2,0.6,9.3,0.8c1.1,0.2,2.9,0.5,4.1,0.6c0.6,0.1,0.7,0.3,0.7,0.6
		c0,0.6-0.4,2-0.4,8.6c0,0.8-0.2,1.1-0.6,1.1s-0.5-0.3-0.5-0.7c-0.2-1.2-0.4-2.9-1.8-4.3c-1.6-1.7-5.8-4.1-11.7-4.1
		c-2.9,0-6.7,0.2-10.4,3.2c-2.9,2.5-4.8,6.4-4.8,12.8c0,11.3,7.2,19.7,18.2,19.7c1.4,0,3.2,0,4.5-0.6c0.8-0.4,1-1,1-1.9v-4.9
		c0-2.6,0-4.6-0.1-6.2c-0.1-1.8-0.5-2.6-2.2-3c-0.4-0.1-1.3-0.2-2-0.2c-0.5,0-0.8-0.1-0.8-0.4c0-0.4,0.4-0.5,1.1-0.5
		c2.7,0,6,0.2,7.6,0.2s4.4-0.2,6.1-0.2c0.7,0,1,0.1,1,0.5c0,0.3-0.3,0.4-0.7,0.4c-0.4,0-0.8,0.1-1.4,0.2c-1.4,0.3-1.9,1.1-2,3
		c0,1.6,0,3.7,0,6.3v5.7L96.4,195L96.4,195z"/>
	<path class="st1" d="M113.5,159.1c0.2-0.9,0.5-1.4,0.9-1.4s0.7,0.3,1.4,1.6l14.3,29.5l14.2-29.9c0.4-0.8,0.7-1.3,1.1-1.3
		c0.5,0,0.8,0.5,0.9,1.6l4.8,32.3c0.5,3.3,1,4.8,2.6,5.3c1.5,0.5,2.6,0.5,3.2,0.5c0.5,0,0.8,0.1,0.8,0.4c0,0.4-0.6,0.6-1.4,0.6
		c-1.3,0-8.5-0.2-10.6-0.3c-1.2-0.1-1.5-0.3-1.5-0.6s0.2-0.4,0.6-0.6c0.3-0.1,0.5-0.8,0.3-2.2l-3.1-23h-0.2l-11.4,23.8
		c-1.2,2.5-1.5,2.9-1.9,2.9c-0.5,0-1-1-1.8-2.6c-1.3-2.4-5.4-10.4-6-11.9c-0.5-1.1-3.6-7.7-5.4-11.6h-0.2l-2.7,20.8
		c-0.1,0.9-0.2,1.6-0.2,2.5c0,1,0.7,1.5,1.6,1.7s1.7,0.3,2.2,0.3c0.4,0,0.8,0.1,0.8,0.4c0,0.5-0.5,0.6-1.3,0.6
		c-2.2,0-4.6-0.2-5.5-0.2c-1,0-3.5,0.2-5.2,0.2c-0.5,0-0.9-0.1-0.9-0.6c0-0.3,0.3-0.4,0.8-0.4c0.4,0,0.8,0,1.6-0.2
		c1.5-0.3,1.9-2.4,2.2-4.1L113.5,159.1L113.5,159.1z"/>
	<path class="st1" d="M213.6,195c0,1.4-0.1,1.5-0.7,1.9c-3.4,1.8-8.5,2.4-12.6,2.4c-12.8,0-24.2-6.1-24.2-20.5
		c0-8.4,4.3-14.2,9.1-17.1c5-3,9.7-3.4,14.1-3.4c3.6,0,8.2,0.6,9.3,0.8s2.9,0.5,4.1,0.6c0.6,0.1,0.7,0.3,0.7,0.6
		c0,0.6-0.4,2-0.4,8.6c0,0.8-0.2,1.1-0.6,1.1c-0.4,0-0.5-0.3-0.5-0.7c-0.2-1.2-0.4-2.9-1.8-4.3c-1.6-1.7-5.8-4.1-11.7-4.1
		c-2.9,0-6.7,0.2-10.4,3.2c-2.9,2.5-4.8,6.4-4.8,12.8c0,11.3,7.2,19.7,18.2,19.7c1.4,0,3.2,0,4.5-0.6c0.8-0.4,1-1,1-1.9v-4.9
		c0-2.6,0-4.6-0.1-6.2c-0.1-1.8-0.5-2.6-2.3-3c-0.4-0.1-1.3-0.2-2-0.2c-0.5,0-0.8-0.1-0.8-0.4c0-0.4,0.4-0.5,1.1-0.5
		c2.7,0,6,0.2,7.6,0.2s4.4-0.2,6.1-0.2c0.7,0,1.1,0.1,1.1,0.5c0,0.3-0.3,0.4-0.7,0.4s-0.8,0.1-1.4,0.2c-1.4,0.3-1.9,1.1-2,3
		c-0.1,1.6-0.1,3.7-0.1,6.3v5.7L213.6,195L213.6,195z"/>
	<path class="st1" d="M227.2,183.3c0,4.8,0,9-0.3,11.2c-0.2,1.5-0.5,2.7-1.5,2.9c-0.5,0.1-1.1,0.2-1.9,0.2c-0.6,0-0.8,0.2-0.8,0.4
		c0,0.4,0.4,0.5,1,0.5c2.1,0,5.4-0.2,6.4-0.2c0.8,0,4.7,0.2,7.7,0.2c0.7,0,1-0.2,1-0.5s-0.2-0.4-0.6-0.4c-0.6,0-1.8-0.1-2.6-0.2
		c-1.6-0.2-1.9-1.4-2-2.9c-0.3-2.2-0.3-6.3-0.3-11.2v-0.7c0-0.3,0.2-0.4,0.4-0.4l4.6,0.1c0.4,0,0.7,0,0.9,0.4
		c0.7,0.8,3.1,4.3,5.2,7.2c2.9,4,4.9,6.5,7.2,7.7c1.4,0.7,2.7,1,5.6,1h9.7c0.6,0,1-0.1,1-0.5c0-0.3-0.2-0.4-0.6-0.4
		s-5.6-0.1-6.2-0.2c-0.8-0.2-2.9-0.5-5.9-3.6c-3.1-3.2-6.7-7.9-11.4-13.8c5.3-4.3,6.9-7.9,6.9-11.7c0-3.5-2.1-6.2-3.6-7.2
		c-2.8-1.9-6.3-2.2-9.6-2.2c-1.6,0-5.6,0.2-7.4,0.2c-1.1,0-4.4-0.2-7.2-0.2c-0.8,0-1.1,0.1-1.1,0.5s0.3,0.5,0.9,0.5
		c0.7,0,1.6,0.1,2,0.2c1.7,0.4,2.1,1.2,2.3,3c0.1,1.7,0.1,3.1,0.1,11.1v9L227.2,183.3L227.2,183.3z M233.4,162.3
		c0-0.4,0.1-0.6,0.5-0.7c0.5-0.2,1.5-0.2,2.8-0.2c3.1,0,8,2.1,8,9.6c0,4.3-1.5,6.7-3.1,7.8c-0.9,0.7-1.6,0.9-3.7,0.9
		c-1.3,0-2.9-0.2-4-0.5c-0.4-0.2-0.5-0.4-0.5-0.9V162.3L233.4,162.3z"/>
	<path class="st1" d="M280.5,184.8c0.3,0,0.4,0.1,0.5,0.4l4.2,11.1c0.3,0.6-0.1,1.1-0.5,1.2c-0.5,0.1-0.7,0.2-0.7,0.5
		c0,0.4,0.6,0.4,1.6,0.4c4.2,0.1,8,0.1,9.9,0.1s2.4-0.1,2.4-0.5s-0.3-0.4-0.7-0.4c-0.6,0-1.4-0.1-2.2-0.2c-1.1-0.3-2.6-1-4.6-5.7
		c-3.3-8-11.7-29.3-13-32.2c-0.5-1.2-0.8-1.7-1.3-1.7s-0.8,0.6-1.5,2.1l-13.1,32.9c-1,2.6-2,4.4-4.4,4.7c-0.4,0.1-1.2,0.1-1.6,0.1
		c-0.4,0-0.6,0.1-0.6,0.4c0,0.4,0.4,0.3,1.1,0.3c2.7,0,5.5,0,6.1,0c1.6,0,3.9,0.2,5.6,0.2c0.6,0,0.9-0.1,0.9-0.5
		c0-0.3-0.2-0.4-0.8-0.4H267c-1.6,0-2.1-0.7-2.1-1.6c0-0.6,0.3-1.9,0.8-3.2l2.8-7.5c0.1-0.3,0.2-0.4,0.5-0.4h11.5L280.5,184.8
		L280.5,184.8z M269.9,182.2c-0.2,0-0.3-0.2-0.2-0.4l4.8-12.9c0.1-0.2,0.2-0.5,0.3-0.5c0.2,0,0.2,0.3,0.3,0.5l4.7,12.9
		c0.1,0.2,0,0.3-0.3,0.3L269.9,182.2L269.9,182.2z"/>
	<path class="st1" d="M306.3,191.3c0.1,4.1,0.8,5.4,1.8,5.8c0.9,0.3,1.9,0.4,2.7,0.4c0.6,0,0.9,0.1,0.9,0.4c0,0.4-0.5,0.5-1.2,0.5
		c-3.4,0-5.5-0.2-6.5-0.2c-0.5,0-2.9,0.2-5.7,0.2c-0.7,0-1.2-0.1-1.2-0.5c0-0.3,0.3-0.4,0.8-0.4c0.7,0,1.6-0.1,2.4-0.3
		c1.4-0.4,1.6-1.9,1.6-6.5l0.5-31c0-1,0.2-1.8,0.7-1.8c0.6,0,1,0.7,1.9,1.6c0.6,0.7,8.6,9.2,16.2,16.8c3.6,3.6,10.6,11.1,11.5,11.9
		h0.3l-0.5-23.5c-0.1-3.2-0.5-4.2-1.8-4.7c-0.8-0.3-2-0.3-2.8-0.3c-0.6,0-0.8-0.2-0.8-0.5c0-0.4,0.6-0.5,1.4-0.5
		c2.7,0,5.2,0.2,6.3,0.2c0.6,0,2.6-0.2,5.1-0.2c0.7,0,1.2,0.1,1.2,0.5c0,0.3-0.3,0.5-0.9,0.5c-0.5,0-0.9,0-1.6,0.2
		c-1.5,0.4-1.9,1.5-1.9,4.5l-0.6,33c0,1.1-0.2,1.6-0.7,1.6c-0.6,0-1.2-0.6-1.8-1.2c-3.3-3.1-10-10-15.4-15.4
		c-5.7-5.6-11.5-12.2-12.5-13.2h-0.2L306.3,191.3L306.3,191.3z"/>
	<g>
		<g>
			<g>
				<defs>
					<rect id="SVGID_1_" x="3" y="2.7" width="393" height="224.3"/>
				</defs>
				<clipPath id="SVGID_2_">
					<use xlink:href="#SVGID_1_"  style="overflow:visible;"/>
				</clipPath>
				<path class="st2" d="M351,183.3c0,4.8,0,9-0.3,11.2c-0.2,1.5-0.5,2.7-1.5,2.9c-0.5,0.1-1.1,0.2-1.9,0.2c-0.6,0-0.8,0.2-0.8,0.4
					c0,0.4,0.4,0.5,1.1,0.5c2.1,0,5.4-0.2,6.6-0.2c2.6,0,7.3,0.6,11.2,0.6c9.7,0,15.1-3.7,17.5-6.2c2.9-3,5.7-8,5.7-14.6
					c0-6.2-2.5-10.6-5.1-13.3c-5.7-6-14.4-6-21-6c-3.1,0-6.4,0.2-8.1,0.2c-1.5,0-4.8-0.2-7.5-0.2c-0.8,0-1.1,0.1-1.1,0.5
					s0.3,0.5,0.9,0.5c0.7,0,1.6,0.1,2,0.2c1.7,0.4,2.2,1.2,2.3,3c0.1,1.7,0.1,3.1,0.1,11.1v9.2L351,183.3L351,183.3z M357.6,173.2
					c0-4.1,0-8.7,0.1-10.5c0-0.6,0.2-0.8,0.6-1s2.4-0.4,3.4-0.4c4.1,0,10,0.6,14.9,5.2c2.3,2.1,5,6.4,5,13.1c0,5.4-1.1,10.2-4.4,13
					c-3.1,2.7-6.7,3.8-12,3.8c-4.1,0-6.2-1.1-6.9-2.1c-0.4-0.6-0.5-2.7-0.6-4c-0.1-1-0.1-5-0.1-10.6V173.2L357.6,173.2z"/>
			</g>
		</g>
		<g>
			<g>
				<defs>
					<rect id="SVGID_3_" x="3" y="2.7" width="393" height="224.3"/>
				</defs>
				<clipPath id="SVGID_4_">
					<use xlink:href="#SVGID_3_"  style="overflow:visible;"/>
				</clipPath>
				<path class="st3" d="M300.7,100.3l0.2,0.6c1.7,1.3,4.1,1.1,6.3,1.6c5.9,1.1,9.2,0.2,14.7,6c2.1,4,3.5,7.1,5.7,10.8l0.3,0.1
					c-1.5-3.5-2.9-7.2-4.1-10.9c-0.9-3.1-3.9-5.6-7-6.2C311.5,101.7,305.9,101.5,300.7,100.3L300.7,100.3z M163.7,82.7
					c0.7,3.9,4.1,7.5,7.6,8.7c2.1,2.5,2.1,6.7,2.5,8.8c1,7.5,3.6,10.6,6,17.7c0.7,2.3,0.6,4.7,0.7,7.1l0.1,0.1
					c1.9-5-0.6-10-2.2-14.4c-1.6-4.1-2-8.6-2.5-12.9c-0.6-2.9-0.3-6.2-3-8C169.3,88.3,166.1,86.1,163.7,82.7L163.7,82.7z
					 M145.5,79.2c-0.6,1.4,0.1,3,0.5,4.1c-1-0.7-1.7-1.8-2.2-3c-0.2-0.1-0.1-0.6-0.3-0.6c0.1,2.6,2,5.4,4.1,6.9
					c4.2,3.3,9.5,3.8,14,6.7l-0.2-0.3c-2.1-3.4-6.9-3.8-7.8-8h-0.1c-0.1,1.3,0.6,2.3,1,3.3c-2.7-0.6-4-3.7-4.7-5.7
					c-0.3,0.6-0.1,1.1,0,1.7c0.1,0.7,0.5,1.4,0.3,1.9C147.4,84.8,146.1,81.9,145.5,79.2L145.5,79.2L145.5,79.2z M238.4,66.4
					c-2.6,0.7-5,1.7-7.4,3c-12.2,6.6-22.4,18.4-35.8,22.1c0.9,0,2.1-0.1,3-0.3c6.4-2.2,13.1-4.7,18.6-8.8c7.4-5.8,14-12.5,22.6-15.7
					L238.4,66.4L238.4,66.4z M276.4,63.8c-0.5-0.2-0.8-0.9-1.4-0.8c3.9,3.1,6.3,7.7,7.4,12.5c1,3.7,2.4,7.7,4.6,10.9
					c3.2,4.1,5.6,7.6,5.9,12.8l-0.1,0.2c-6.7,0.6-12.6-1.2-18.4-3.8c-7.7-3.7-13.7-9.7-20-16c-2.1-1.5-4.5-3.1-6.8-3.6
					c0.1,0.1,0.3,0.2,0.6,0.3c7.5,4.3,11.3,13.3,19,17.7c7.4,5.1,17.5,7.7,26.8,6.1c0-3.9-0.8-7.1-2.3-10.4
					c-2.2-5.4-7.1-10.4-8.1-16.2C282.5,69.4,279.8,66.7,276.4,63.8L276.4,63.8z M225.6,44.9c-3.8-0.8-10.1-1.5-13.9-1
					c3.3,0.6,7.4,1.4,10.6,2.2c6.9,2.1,13.1,3.5,18.8,7.9c-9.7-1.8-19.3-1-28.1,1.3c-10.5,3.1-21,7.9-30.5,13.7
					c6.4-2.4,13.6-5.1,20-7.6c18.9-5.9,24.4-8,38.8-6.8c0.6,0,1.3,0.3,1.8,0.2c-0.1-0.5-0.8-1.2-1.1-1.5
					C236.3,49,232.2,46.6,225.6,44.9L225.6,44.9z M92.1,43.4c-0.5,0-1.8-0.5-1.5,0.6l2.5,0.9c2.6,0.6,3.9,0.2,5.8,0.2
					C96.6,44.3,94.2,43.9,92.1,43.4L92.1,43.4z M90.8,41c-0.1,0.2-0.1,0.5-0.1,0.7l2.2,0.2c3.4,0.2,6.1-1,9-2.4
					C98.1,39.8,94.5,40.5,90.8,41L90.8,41z M87.3,37.8c-0.2,1.6,0.3,3.2-0.1,4.8C87,43.8,86,44.9,86,46.1c0.2-0.3,0.7-0.2,0.9-0.6
					C89,42.8,88.6,39.9,87.3,37.8L87.3,37.8z M91.7,38.2c-0.6,0.3-1.6,0.1-1.4,1c4.4-0.4,8.1-1.8,11.7-4.2
					C98.6,35.8,95.2,37.2,91.7,38.2L91.7,38.2z M125.9,30.2c-0.8,1.6-0.8,4.2-0.6,5.8c0.5,1.7,1.5,3,2.4,4.6
					c-0.3-3.5-1.7-6.9-1.7-10.3L125.9,30.2L125.9,30.2z M110.3,27.7c-5.6-1-10.2,3.8-15.1,5.1c-0.7,0.3-1.7-0.1-2.1,0.3
					c5.3,1.1,8.8-3.4,13.7-4c1.6-0.2,3.2,0.2,4.1,1.5c1.4,2.7,0.1,5.2-1,7.7c-1.8,3.8-5.6,6.9-7.3,10.7c-0.7,1.8-1.6,4-0.8,5.8h0.1
					c-0.1-4.2,3-7.4,5.8-10.3c3.5-3.7,7.3-9,5-14.3C112.3,29.2,111.3,28.1,110.3,27.7L110.3,27.7z M149.5,24.7c-0.3,3-2.9,5-5,7
					c-2.7,2.9-5.5,7.2-5.4,11.1c-0.2,6.7,5.1,11.1,4,18.1L143,61c-2.1-5.9-7.7-9.5-7.5-16.3c0-5,2.5-9.5,5.6-13.1
					c0.5-0.9,1.3-2.1,0.9-3.1c-0.7,2.1-2.1,3.8-3.8,5.3c-2.6,2.3-5,6.3-5.1,9.8c-0.9,7,4.8,11.1,7.7,16.7c0.7,1.5,1,3.2,1.4,4.8
					c0.2,0.5-0.1,1.1,0.2,1.5c1.3-3.5,1.9-7.3,1.6-11.4c-0.9-4.6-3-8.7-2.5-13.7c0.1-1.7,0.3-3.4,1.3-4.6c-0.6,4-0.9,5.6,1.5,10.8
					c0.2,0.2-0.1,0.7,0.5,0.7c0.9-1.1,1.5-2.6,2.4-3.9c3-3.9,6.9-7.9,12-7.9c-6.6-1.8-11.2,4-14.5,8.7c-1.3-2.5-0.2-6.5,0.3-9.4
					c1.1-3.4,3.5-5.1,4.5-8.7C149.5,26.2,150,25.3,149.5,24.7L149.5,24.7z M92.2,23.2c-0.7,0.7-0.9,1.7-0.9,2.6
					c0.3,0.3,0.6-0.2,0.9,0c0.1,0.1,0.3,0.3,0.2,0.6c-1.5,0.6-2.6,1.5-4.1,1.7c-0.2,0.1-0.6,0.1-0.6,0.5c0.9,0.1,1.9,0,2.7-0.2
					c2.9-1,5.3-2.5,8.4-2.7c-0.2-0.1,0.2-0.2,0-0.3c-0.2,0-0.1-0.3-0.5-0.5C96.3,24.4,93.7,24.9,92.2,23.2L92.2,23.2z M130.7,18.8
					c-1,1.4-1.9,2.7-2.2,4.3c-2.3,6.7,3.7,12.1,1.9,18.9c0,0.2-0.1,0.6-0.1,0.8h0.1c2.4-4.7,0.7-9.6-0.4-14
					C129.3,25.3,128.9,21.8,130.7,18.8L130.7,18.8L130.7,18.8z M128.6,10.1c-1.3,0.5-2.4,0.9-3.5,1.4c-4.4,2.1-6.7,6.7-6.5,11.6
					c0,2.7,1.1,4.9,1.6,7.4c-1.8-3-3.1-5.9-4-9.2c-0.2,1.7,0.3,3,0.7,4.6h-0.1c-2.3-1.4-5-3.3-6.1-5.9c-0.1,0.6,0.1,1,0.2,1.5
					c1.4,3,3.3,5.3,6.1,6.7l3.1,4c2.3,4.3,1.1,9.6-1.6,13.3c-1.6,2.2-3.3,4.5-5.3,6.4c0.8-2.5,1-5.3,1.6-7.9
					c-0.2,0.2-0.5,0.6-0.6,0.9c-1.5,5.5-3.8,9.8-6.1,15.7c0-3.4,1-6.8,0.9-10c-2.2,5.4-3.3,12.5-1.5,18.4h0.1c0.1,0-0.1-0.3,0.2-0.5
					c-0.2-4.2,2.5-8,4.2-11.6c2.6-5.3,7.7-8.9,9.7-14.3c2.6-6.9-1.7-12.9-1.4-20c0.1-4.6,2.2-8.7,6.5-10.4l0.1,0.1
					c-0.6,1.5-1.4,3.4-1.5,5c-0.5,3,0.2,6.5-0.9,9.6c-0.1,0.8-0.7,1.5-0.7,2.3c2.2-3.5,3.5-7.2,3.5-11.8c0-2.5,1.1-4.8,1.7-7.1
					C129,10.2,128.7,10.2,128.6,10.1L128.6,10.1z M116.8,5.7c0.7,0.8,1.3,1.8,1.7,2.9l-0.1,0.3c-2.1,1.4-4.1,3.4-4.9,5.6l0.1,0.1
					c5-6.2,12.1-9,20-8.7c5.6,0.9,9.8,5.1,13.5,9.5c7.3-0.3,13.4,4.2,17,10.2l1.5,1.9c-2.6-0.3-5.3-0.3-7.7,0.3
					c2.9,0.7,6,0.6,8.7,1.5c5.3,1.3,9.4,4.9,13.3,8.9c3.4,2.3,8,1.4,12,2.3c2.3,0.3,4.3,1.4,6.9,0.9c7-1.5,14.4-3.1,22-3.2
					c16.5-0.3,31.3,4.9,45.9,10.1c6.2,2.4,12.1,6.5,16.2,12.2c7.2,9.4,16.2,20.1,27.8,23c2.9,0.6,6.1,0,8.5-1.4
					c3.1-2.3,4.2-6.9,3.3-11c-0.9-2.7-2.4-5.4-4.7-7.2c-3.7-3.2-9.5-6.1-8.6-11.7c1.7-4.5,5.4-8.1,8.2-12.1l0.2,0.1
					c0,2.7,0.7,5.3,1.9,7.4c0.5-0.5,0.2-1.5,0.5-2.2c0.5-1.1,0.9-2.3,2-3.1c0.7,1.8,1.1,3.7,1.6,5.6c0.5,2.6,0.6,5.7-0.1,8.4
					c0,0.1,0,0.5,0.2,0.2c0.8-1.1,1.7-2.3,3-2.7c-3.9,8.2,2.5,16.4-0.1,24.9c-0.8,3.7-4.1,7.3-7.8,8.2c-2.3,0.9-5,1.1-7.4,0.7
					c-7.5-0.8-14.3-4.1-20.8-7.7c-0.8-0.2-1.3-1-1.9-1.1c1.6,2.9,4,5.3,6.5,7.7c5.8,5,12.5,9,20.4,10.1c3.9,0.8,8.5,0.5,11.2,3.4
					c1.5,2.9,0.7,6.5,1.1,9.6c0.5,5.4,3.1,9.8,5.4,14.5c0.6,1.7-0.7,3-2,4.1c-2.9,1.3-3.3,4.3-5.3,6.1c-1.9,0.1-4.5,0.1-6.4,0
					c0-0.9,0.6-1.9,0.9-2.7c0.7-1,1.9-1.3,2.6-2.2c-1.7,0.2-3.9,0.9-4.5,2.9l-0.8,1.9c-1.8,0.1-3.8,0.1-5.4,0c0-0.9,0.9-1.6,1.3-2.5
					c0.5-1.8,2.6-1.4,3.5-2.6c-0.7-0.2-1.1,0.3-1.8,0.2c-1,0.3-2.1,0.5-2.7,1.4c-0.5,1.3-1.5,2.3-2.1,3.5c-1.3,0.1-2.4,0.1-3.7,0
					c-0.6-0.1-0.5-0.8-0.2-1.1c1-1.5,1.6-3.2,2.9-4.6c1.8-0.8,4.2,0,6.1-1c1.6-0.9,3.5-1.7,4.3-3.7c0.2-3.9-1.7-7.3-3.4-10.5
					c-2.3-3-5.6-4.6-9.2-4.8c-8.4-1.1-17.4-1-25.2-3.7c-8.4-2.5-15.9-7-22.6-13c-4.6-4.6-8.9-9.9-15-11.8
					c-5.5-0.9-10.5,1.7-15.3,3.7c-8.7,4.2-17,9.3-26.4,11.6c-6.2,1.9-13.3,1.8-19.9,1.7c-2.2-5.3,2.1-13-3.7-16.8
					c-3.9-2.3-8.4-5.7-10-9.6c-0.1,0,0,0.2,0,0.3l-0.1-0.3l-0.1,0.1c0.7,4.9,5.1,9,9.1,11.8c4.7,4,0.8,11.7,4.3,16.1
					c-1.3,0.2-2.2-0.8-2.9-1.7l-0.2,0.2c-0.2,2.4-0.1,4.9,1.1,6.9c-0.9-0.3-1.8-1.3-2.4-2.1c-0.1,2.6,0.9,5.3,1.7,7.7
					c1.6,5.7,4.5,11.2,4.9,17.3c0,4-4.7,3.9-6.6,6.5c-0.6,0.6-0.9,1.3-1.8,1.1c-3,0-6.1,0.2-8.9-0.1c-0.5-0.6-0.1-1.3,0-1.9
					c0.3-1.9,2.5-2.3,3.8-3.1c-1.8,0-3.9,0.5-4.9,2.2c-0.5,1-0.6,2.2-1.3,3c-1.3,0-2.9,0.1-4-0.1c-0.2-0.7,0.3-1.4,0.7-2.1
					c0.8-1.8,2.7-2.7,4.5-3.5c0.1-0.1,0-0.2,0.2-0.3c-1.3,0-2.3,0.6-3.5,0.9c-1.3,1-2.4,2.5-3.3,3.8c-0.2,0.5,0,1-0.5,1.4h-3
					c-0.6-1.4,0.7-2.3,1.5-3.3c1.3-1.3,2.1-3.2,3.9-3.8c3.3,0,7.4,0.3,9.2-2.9c1.1-2.9-0.9-4.9-1.6-7.3c-4.3-9.6-13.7-16-21.5-23.6
					c-4.6-5.1-8.1-11-8-18.1c-0.2-4,0.9-8.4,0-12.2c-0.1-0.1-0.2-0.2-0.3-0.2c-0.1,1.4,0,2.6,0,3.9c-0.6,5.8-2.5,11.7-0.3,17
					c1.3,3.7,4.9,8,7.5,11.1c-4.5-1.5-8.7-2.4-11.3-7.1c-0.6-1.3-1.1-3.7-0.3-4.8c0.2-0.5,0.9-0.5,1.3-1c-3.4-2.4-4.3-6.6-4.7-10.5
					v-0.1c-0.5,1-0.1,2.2-0.3,3.4c0.1,2.7,0.8,5.5,2.9,7.4c-1.3,1.3-2.2,3.5-1.6,5.3c0.8,3,3.3,4.7,6.7,6.2c1.7,0.9,3.2,1.2,5,1.7
					c-3.7,0.6-8,1.5-11.6-0.2c-3.1-1.1-5.8-4-6.3-7.3c-0.6-3-0.7-5.9-3.2-8c1.8,0.5,3.1,2.3,4.5,3.4c0.1,0,0.1-0.3,0.1-0.5
					c-1.5-3.2-4.7-4.7-7-6.9c-2.9-4.4-1.6-8.7-1.2-13.3c0.3-2.3,1-4.4,1.5-6.5c-0.3-0.1-0.3,0.3-0.6,0.6c-2.2,5-3.5,9.6-3.2,15.6
					c0.2,2.9,2.4,6.7,4.9,8.6c2.9,2.7,1.7,7.1,3.5,10.3c2.1,3.7,6.1,5.6,9.3,8v0.2c-2.6-0.7-5.4-1-8.1-1.3c0.6,3.2,1.3,7-0.1,10.2
					c-2.3-5.4-7.4-9.2-12-12.8c-3.5-3.7-4.3-9.5-2.4-14.2c1,4.8,5.5,8.8,8.7,12.5c0.9,1.1,1.5,2.5,2.1,3.7c0.1-4.7-3.1-7.1-5.6-10.8
					c-1.7-2.5-3.8-5.9-3.9-8.9c-0.1-0.6-0.2-1.1-0.5-1.6l-0.1,0.3l0,0c-0.2,0.7-0.2,1.4-0.5,2.1c-2.5,3.9-5.5,6.2-1,14.2
					c-5-3.8-8.1-9-8.5-15.1c-0.1-1.6-0.1-2.9,0.2-4.3c0.8,0.3,1.4,1.1,2.2,1.5l0.1-0.2c-1.8-7.4-0.3-14.6,1.3-23.1l-0.1-0.1
					c-0.9,1.5-1.3,3.2-1.9,4.8c-0.1,0.7-0.2,1.6-0.5,2.3h0.1c-0.2,0.5-0.2,1.1-0.3,1.6c-0.6,3.7-0.9,7.9-0.4,11.6
					c-2.6-3.5-3.4-8.1-2.7-12.7l0.3-2.5c-0.7,0.1-1,1-1.6,1.4c0.6-2.4,1.3-6.1-1.1-7.9c-1.5-0.1-2.3,1.7-3.1,2.9
					c-0.9,2.4-3.4,3.9-5.7,4.3c-1,0.6-1.6,1.6-1.8,2.7c-1.8-0.5-3.8-1.5-4.2-3.5c-0.5-1.1-1-2.4-1.8-3.4c0-0.5-0.2-1-0.6-1.5
					c0.3-0.6-0.1-1.6,0.7-1.7c2.2,0.1,3.8,1.5,5.6,2.4C89,52.8,90,52,90.6,51l0.2-0.9c-0.3,0-0.3-0.6-0.7-0.8
					c-2.4-2.3-5.9-0.8-8.8-1.1c-2.4-0.6-2.7-3.2-3.9-5c-0.6-0.8-1.6-1.4-1.5-2.5c0.6-0.6,1.8-0.1,2.7-0.2c0.7-0.2,1.5-0.5,2.3-0.7
					c-0.2,0.3,0,1-0.5,1.1V41c-0.6,0.2-1.3-0.3-1.7,0.1c-0.8,0.5-0.7,1.4-0.8,2.1c0.2,0.1,0.6-0.1,0.7-0.3c0.6-0.8,1.8-0.8,2.5-1.6
					c0.5-1,1-1.9,0.5-3.1c-1.1,1.1-3.1,0.7-4.6,0.8c0.8-1.7,2.5-3.2,3.9-4.7c2.1-1.6,4.2-3.4,5.4-5.7l2.3-2.1
					c0.8-2.3,2.3-4.8,4.9-5.3c1.1-0.5,2.5-0.5,3.7-1.1c3.8-3.5,8.8-4.8,11.7-9.4c1.6-2.3,2.6-4.8,3.4-7.3
					C113.8,2.6,115.3,4.5,116.8,5.7L116.8,5.7z"/>
			</g>
		</g>
	</g>
	<path class="st1" d="M255.3,89v0.3c-6.2,5.7-13.4,11.4-18.1,18.4c-0.8,1.4-1.4,2.9-2.1,4.2c1-8.6,2.9-12.7,5-18.8
		c-3.9,5.6-6.4,12.1-6.6,19.4c0,3.1,0.5,6.1,0.9,8.9c0,2.6-2.7,3.5-4.5,4.3c-1.3,0.5-2.4,1.1-3.5,1.6c0.8-1.7,2-2.3,2.8-6.1
		c0.2-3.9-0.8-7.6,0.4-11.1c-0.1-0.3,0.1-0.5,0-0.7c-0.8,0.8-1,2.2-1.4,3.3c-1.3,5.4-0.2,11.9-4.8,15.8c-2.6,1.9-5.1,3.4-7.8,5.3
		l-2.1,0.6l-7.1-0.1c0.2-1.3,0.8-2.7,2.2-3.4c0.8-0.3,1.8-0.6,2.3-1.5c-0.3-0.3-0.9,0.5-1.4,0.6c-1.9,0.3-4.2,1.6-4.7,3.7
		c-0.1,1.4-1.9,0.6-2.9,0.8c-0.8-0.1-1.7,0.1-2.2-0.2c-0.1-1.5,1.8-2.6,2.5-3.9c0.7-0.8,1.9-0.9,2.4-1.8c-1.7,0.5-3.9,0.6-4.7,2.5
		c-0.5,1.3-2.1,1.9-2.2,3.3c-1,0.2-2.1,0.1-3.1,0.1c-0.5-0.3-0.5-0.9-0.2-1.4c0.5-1,1.3-1.9,1.9-2.7l-0.1-0.1c0.8-1.5,2.4-3,4.4-3.1
		c3.2,0.2,6.4-0.1,9.2-1.6c4-2.4,9.4-5.3,10.5-10.3c1.4-5.4-0.2-11.2-0.8-16.6c-0.4-2.6-0.6-5.3-0.4-8.1l0.2-0.3
		c7.1-3.8,13.9-8.2,22.2-9.2C247.6,80.9,251.5,85.3,255.3,89L255.3,89z"/>
	<path class="st1" d="M122.2,104.8c-0.9,0.8-2.2,1-3.1,1.8c-5.4,3.7-10.8,7.8-14.9,13c-2.9,3.6-6.4,6.8-10.2,9l-0.1-0.1
		c3.5-6.6,2.7-14.9,7.8-20.9c1-1.3,2.5-2.2,3.3-3.5c-3.5,2.1-7.3,5.1-8.4,9c-2.1,4.9-1.6,11.4-4.8,15.8c-1.4,1.4-2.7,2.5-4.6,3
		c-1.9,0.1-3.5,1-4.7,2.5l-1,0.3c-2.4,0-4.5,0.2-6.6-0.1v-0.1c0.6-1.2,1.1-2.6,2.4-3.3l-0.1-0.1c0.6-0.5,1.5-0.7,2.1-1.1
		c0-0.1-0.1-0.5-0.3-0.3c-0.3,0-0.6,0.5-0.8,0.1c-1.4,0.2-2.9,1-3.7,2.1c0,0,0,0.1,0,0.2l0.2-0.2c-0.3,0.9-1,1.9-1.7,2.9
		c-1.4,0.2-2.3,0.1-3.5,0.1l-0.1-0.2h0.1c-0.1-0.3,0.2-0.6,0.2-1c0.7-0.7,1.3-1.5,1.6-2.2c0.3,0,0.2-0.6,0.5-0.8
		c0.2-0.1,0.3-0.7,0.7-0.7c0.6-0.8,1.7-0.8,2.4-1.3c-0.6-0.2-1,0-1.6-0.1v0.1c-0.1-0.1-0.3,0.1-0.5,0c-0.5,0-0.9,0.3-1.3,0.2
		c-1,0.9-1.6,2.3-2.6,3.4c-0.8,0.6-1.4,1.7-1.7,2.5c-1,0.2-2.3,0-3.4,0c-0.3-0.9,0.3-1.6,0.7-2.4c1.7-1.8,3.2-4.7,5.9-5.6
		c3.7-0.1,7.7,0.7,10.5-1.5c3.2-2.2,4.5-6.3,7.1-8.8c0.1-0.7,0.7-1,1.1-1.6c2.7-3.5,5.6-7.5,8.4-11.4c3-4.6,5.8-9.2,7.6-14.2
		C110,95.2,116.8,99.2,122.2,104.8L122.2,104.8z"/>
	<path class="st0" d="M215.3,160.6l-0.4,9.4 M218.2,181.6c0,0-1.9-0.2-2.3,0.6c-0.6,1.1-0.2,13.8-0.2,13.8 M274.9,172.7L272,181
		 M29.4,184.1l-13-26.4 M47.5,158.2c0,0,4.9,32.4,5.3,34.2c0.3,1.4,0.8,2.2,1.4,2.5c1.3,0.7,2.3,0.6,2.3,0.6 M86.9,163.3
		c0,0-3.7-0.8-6.1-0.8s-7.1,1.1-9.5,4.5c-1.6,2.3-2.8,6.4-2.7,10.7c0.1,3.3,1.4,7.5,3.1,9.9c1.4,2,3.2,3.9,5.9,5.1
		c2.2,1,5.8,2.1,8,2.1 M98.4,160.5l-0.4,9.4 M100.8,181.7c0,0-1.2-0.3-1.7,0.3c-0.8,1-0.2,13.8-0.2,13.8 M203.8,163.5
		c0,0-3.7-0.8-6.1-0.8c-2.4,0-7.1,1.1-9.5,4.5c-1.6,2.3-2.8,6.4-2.7,10.7c0.1,3.3,1.4,7.5,3.1,9.9c1.4,2,3.7,4.2,6.4,5.4
		c2.2,1,5.2,1.8,7.4,1.8 M235.4,162.8v14.7 M235.2,183.8c0,0-0.2,10.5,0.9,11.3c1.1,0.9,2.6,0.7,2.6,0.7 M248.7,159.5
		c2.3,1.5,3.1,3.7,3,3.4c0.6,1,1.3,2.8,1.3,5.7c0,7.4-6.8,11.3-6.8,11.3s3.9,4.8,5.2,6.5c2.5,3.3,6.1,7.2,7.3,7.6 M279,157.7
		c0,0,13.7,34.7,15.1,36.7c0.5,0.8,1,1.2,2,1.3c1.5,0.2,3.3,0,3.3,0 M269.7,186.3c0,0-2.2,6.2-2.5,7.1c-0.3,0.9-0.7,2,0,2.2
		s1.4,0.2,1.4,0.2 M307.6,173.8c0,0,0.6,17.5,0.8,18.8c0.2,1.5,0.2,2.8,1.1,3.1c0.9,0.2,1.9,0.3,1.9,0.3 M307,158.3l24.3,25.4
		 M341.1,161.6c-1.1,0-2,0.6-2.2,2c-0.2,1.3-0.8,35.4-0.8,35.4 M359.8,163.8l0.2,29.9 M380.4,159.7c1.6,0.5,4.1,2.7,4.9,3.6
		c1.6,1.8,3.4,4.4,4.3,6.5c0.9,2.3,1.5,5.8,1.5,8.6c0,2.2-0.4,4.7-1.2,7.2c-1,3.1-3.1,6.4-4.6,8.2c-1.3,1.6-2.3,2.5-5.2,4.1
		 M15.2,177.8c0,0-2.1,16.4-1.9,17.2c0.2,0.9,2.3,0.7,2.3,0.7 M40.4,176.8l-10,21.5 M130.3,184.1l-13-26.4 M148.4,158.2
		c0,0,4.9,32.4,5.3,34.2c0.3,1.4,0.8,2.2,1.4,2.5c1.3,0.7,2.3,0.6,2.3,0.6 M116.1,177.8c0,0-2.1,16.4-1.9,17.2
		c0.2,0.9,2.3,0.7,2.3,0.7 M141.3,176.8l-10,21.5"/>
	<polygon class="st1" points="130.6,214.7 133,214.7 133,224.7 141.7,224.7 141.7,226.8 130.6,226.8 	"/>
	<path class="st1" d="M144.9,226.8h2.5l1.3-2.8h7l1.3,2.8h2.5l-5.9-12.1h-2.7L144.9,226.8L144.9,226.8z M149.7,222l2.5-5.4l2.5,5.4
		H149.7L149.7,222z"/>
	<path class="st1" d="M173,218.4c-0.4-1.1-1.4-2-4.2-2c-1.6,0-3.2,0.4-3.2,1.5c0,0.5,0.3,1.1,2.7,1.4l2.9,0.4
		c2.7,0.4,4.3,1.5,4.3,3.5c0,2.9-2.7,3.9-5.9,3.9c-5.2,0-6.4-2.6-6.7-3.5l2.3-0.7c0.4,0.9,1.3,2.2,4.5,2.2c1.9,0,3.5-0.6,3.5-1.7
		c0-0.8-0.9-1.3-2.6-1.5l-2.9-0.4c-2.8-0.4-4.4-1.6-4.4-3.4c0-3.6,4.7-3.6,5.6-3.6c5.2,0,6.1,2.4,6.4,3.2L173,218.4L173,218.4z"/>
	<polygon class="st1" points="187,214.7 189.5,214.7 194.1,224.3 198.7,214.7 201.2,214.7 195.3,226.8 192.8,226.8 	"/>
	<polygon class="st1" points="205.6,214.7 216.4,214.7 216.4,216.7 207.9,216.7 207.9,219.5 215.2,219.5 215.2,221.5 207.9,221.5 
		207.9,224.7 216.6,224.7 216.6,226.8 205.6,226.8 	"/>
	<path class="st1" d="M233.6,220.6v6.3h-1.4l-0.5-1.2c-0.9,0.6-2.2,1.4-4.5,1.4c-3.1,0-6.8-1.5-6.8-6.3c0-3.2,1.9-6.4,6.8-6.4
		c2.8,0,5.8,1,6.4,4.1h-2.4c-0.3-0.6-0.9-2-3.7-2c-3.8,0-4.7,2.5-4.7,4.2c0,2.9,1.9,4.3,4.5,4.3c2.3,0,3.6-0.8,4.2-2.5h-4.2v-1.9
		L233.6,220.6L233.6,220.6z"/>
	<path class="st1" d="M237.3,226.8h2.5l1.3-2.8h7l1.3,2.8h2.5l-5.9-12.1h-2.7L237.3,226.8L237.3,226.8z M242,222l2.5-5.4l2.5,5.4
		H242L242,222z"/>
	<path class="st1" d="M265.4,218.4c-0.4-1.1-1.4-2-4.2-2c-1.6,0-3.2,0.4-3.2,1.5c0,0.5,0.3,1.1,2.7,1.4l2.9,0.4
		c2.7,0.4,4.3,1.5,4.3,3.5c0,2.9-2.7,3.9-6,3.9c-5.2,0-6.4-2.6-6.7-3.5l2.3-0.7c0.4,0.9,1.3,2.2,4.5,2.2c1.9,0,3.5-0.6,3.5-1.7
		c0-0.8-0.9-1.3-2.6-1.5l-2.9-0.4c-2.8-0.4-4.3-1.6-4.3-3.4c0-3.6,4.7-3.6,5.6-3.6c5.2,0,6.1,2.4,6.4,3.2L265.4,218.4L265.4,218.4z"
		/>
</g>
</svg>
