<?xml version="1.0" encoding="utf-8"?>
<!-- Generator: Adobe Illustrator 21.1.0, SVG Export Plug-In . SVG Version: 6.00 Build 0)  -->
<svg version="1.1" id="Layer_1" xmlns="http://www.w3.org/2000/svg" xmlns:xlink="http://www.w3.org/1999/xlink" x="0px" y="0px"
	 viewBox="0 0 400 147" style="enable-background:new 0 0 400 147;" xml:space="preserve">
<style type="text/css">
	.st0{fill:#242428;}
</style>
<path class="st0" d="M53.3,8.6C27.7,38.7,3.1,76.1,2.9,104c-0.1,10.5,3.3,19.7,11.3,26.6c11.6,10,24.3,13.5,37,13.5
	c18.5,0,37-7.5,51.4-13.2C126.9,121.2,395.3,4.6,395.3,4.6c2.6-1.3,2.1-2.9-1.1-2.1c-1.3,0.3-292.3,79.2-292.3,79.2
	c-5.6,1.6-11.4,2.4-16.9,2.4c-22.4,0.1-42.3-12.3-42.1-38.4C43,35.5,46.1,23.1,53.3,8.6L53.3,8.6z"/>
</svg>
