<?xml version="1.0" encoding="utf-8"?>
<!-- Generator: Adobe Illustrator 21.1.0, SVG Export Plug-In . SVG Version: 6.00 Build 0)  -->
<svg version="1.1" id="Layer_1" xmlns="http://www.w3.org/2000/svg" xmlns:xlink="http://www.w3.org/1999/xlink" x="0px" y="0px"
	 viewBox="0 0 400 136" style="enable-background:new 0 0 400 136;" xml:space="preserve">
<style type="text/css">
	.st0{fill:#242428;}
	.st1{fill:#FFFFFF;}
	.st2{fill:none;stroke:#FFFFFF;stroke-width:0.3446;}
	.st3{fill:#FFFFFF;stroke:#FFFFFF;stroke-width:0.3446;}
</style>
<g>
	<path class="st0" d="M48.2,3.4h37.4c5.2,0,9.2,1.6,13,4.3c2.6,1.9,5,4.3,7.6,7.5c2.6,3.7,3.5,8.3,2.6,12.7h19.8h5.2l-1,2.6
		c1.2-0.7,2.4-1,3.6-1.4c4.5-1.2,8.7-1.2,12.2-1.2h5l-1.6,3.8c0.3,0,0.5,0,0.9,0h2.4c4.5-2.4,10.4-3.8,18.1-3.8h16.9
		c4.2,0,7.6,0.7,10.4,1.9c5.2,2.1,8.3,6.3,10.6,10.3l4-9.9l0.9-2.3h2.3h36.3c3.7,0,7.6,0.9,10.4,1.9c4.5,1.9,8.3,6.4,10.9,10.6
		c2.1-3.5,5.2-6.4,8.9-8.5c4.5-2.6,10.8-4,18.9-4h14.3c5.9,0,11.6,1.6,16.2,5c3,2.1,5.2,5,6.8,8.9L352,14.7c-3.1-1-11.3-3.5-9.2-8.3
		l0.7-1.6c0.5-1.4,1.2-1.2,2.6-1.2l39.1-0.2c0,0,3.6,0,5,0s3.8,2.5,3.7,4c0,1.5-1.3,4.7-1.3,4.7l-39.5,98.2l-1.3,1.4l-2,0.8h-26.2
		l-4.6-0.7l-3.4-3.1c0,0-1.2,3-6.8,3h-15.1H290h-0.7c-3.8,0-8,0-12.3-0.5c-1.9-0.2-3.7-0.7-5.2-1.4c-4.3-1.7-9-6.1-12-9.9
		c0,0-0.2-0.2-0.2-0.3c-2.3,3.8-5,6.6-9.2,8.7c-5,2.4-11.5,3.5-19.3,3.5h-9l-7.8,19.3l-3.1,2.3h-26.1h-5c0,0-2.1-2.1-2.6-4.1
		c-0.5-2.1,0.1-4.6,0.1-4.6l5.7-14.1c-3.1,0.9-7,1.2-11.6,1.2h-9.9h-3.5h-0.7c-3.8,0-6.8,0-11.3-0.5c-1.7-0.2-4.2-0.7-5.9-1.4
		c-7.3-3-15.3-10.8-14.3-19.1c0.2-1.2,0.5-2.3,0.9-3.3l10.1-25.9c-1.6,0-2.4,0-3.8,0c-2.1,0.2-4,0.7-5.6,1.6
		c-1.4,0.7-2.6,2.1-3.3,4.2L107,110.5l-0.9,2.3h-2.4H77.8h-5.2c0,0-2-1.5-2.4-3.5c-0.5-2,0.2-5.2,0.2-5.2L78,84.7
		c-4.7,1.7-10.4,2.6-17,2.6h-9.2l-9.2,22.9l-0.9,2.3h-2.4H13H8l-2.2-3.8l-0.2-4.9L44.9,5.7l0.9-2.3L48.2,3.4L48.2,3.4z"/>
</g>
<g>
	<g>
		<path class="st1" d="M318.1,31.7c-5.7,0-5.8,0-11.3,0c-15.1,0-21.6,4.9-25.4,13.5l-17,43.4c-3.3,8,4.9,15,12.7,16.1
			c4.5,0.5,4.7,0.5,8.7,0.5h12.5c14.4,0,17.7-4,21.4-13.5c0,0,1.3-2.8,2.7-5.9c1.6-3.6,2.6-8.8-3.6-9c-4.1-0.1-5.9,0-9.9,0.1
			c-3.2,0.1-7,3.1-7.7,5.3c-0.7,2.2-1.7,4.3-1.7,4.3c-2.3,5.2-4.9,9.9-15.9,9.6l9.6-24.2c7.5,0,19.1,0.4,26.8,0.4
			c4.5,0,8.8-3.7,10.3-7.4c2.3-6,5.7-13.7,5.7-13.7C339.8,41.5,333.4,31.7,318.1,31.7z M307.1,60.4c-2.1,0.9-9.1,1.3-10,1.3
			l-0.3,0.7l0.2-0.7c0,0,0,0,0.1,0l5-12.5c2.7-6.8,10.8-8.7,15.4-8.7C317.4,40.5,313,57.7,307.1,60.4z"/>
	</g>
	<g>
		<path class="st2" d="M318.1,31.7c-5.7,0-5.8,0-11.3,0c-15.1,0-21.6,4.9-25.4,13.5l-17,43.4c-3.3,8,4.9,15,12.7,16.1
			c4.5,0.5,4.7,0.5,8.7,0.5h12.5c14.4,0,17.7-4,21.4-13.5c0,0,1.3-2.8,2.7-5.9c1.6-3.6,2.6-8.8-3.6-9c-4.1-0.1-5.9,0-9.9,0.1
			c-3.2,0.1-7,3.1-7.7,5.3c-0.7,2.2-1.7,4.3-1.7,4.3c-2.3,5.2-4.9,9.9-15.9,9.6l9.6-24.2c7.5,0,19.1,0.4,26.8,0.4
			c4.5,0,8.8-3.7,10.3-7.4c2.3-6,5.7-13.7,5.7-13.7C339.8,41.5,333.4,31.7,318.1,31.7z M307.1,60.4c-2.1,0.9-9.1,1.3-10,1.3
			l-0.3,0.7l0.2-0.7c0,0,0,0,0.1,0l5-12.5c2.7-6.8,10.8-8.7,15.4-8.7C317.4,40.5,313,57.7,307.1,60.4z"/>
	</g>
</g>
<path class="st3" d="M325.8,100.2c1.8-4.1,34.8-86.9,34.8-86.9c1.2-2.8,0.6-3.6-2.5-4.4l-6.4-1c-2.3,0-1-1.8-1-1.8s31,0.2,31.9,0.2
	c0.8,0,2.4,0.3,1.5,3.1c-0.8,2.5-29.5,74.4-36.6,92.2c-1,2.5-5.5,4-5.5,4s-9.2,0-12.4,0C324.8,105.3,324.8,102.5,325.8,100.2z"/>
<path class="st3" d="M104,31.2c-0.6,0.4-25.9,65-27.1,67.6c-1.1,2.6-0.3,5.8,1.9,5.7c1.1-0.1,8,0.5,13.8,0.4
	c4.4-0.1,6.6-5.6,6.6-5.6l15.1-37.6c2.3-5.7,6.4-8.4,11.5-8.7c2-0.1,5.4,0.1,7.6,0.2c3.4,0.2,5.5-4.3,5.5-4.3l7.1-17
	c-9.9,0.8-19,5.7-26.4,16l6.4-16.7C125.8,31.2,104.7,30.6,104,31.2z"/>
<g>
	<g>
		<path class="st1" d="M194.2,31.5c-5.6,0-11.1,0-16.9,0c-14.4,0-21.6,4.9-25.4,13.5l-17,43.4c-4.4,9,5,15.1,13,16.1
			c4.3,0.5,7.3,0.5,11.5,0.5h11.8c8.7,0,13.1-4,16.8-13.5l16.2-40.8C209.4,39.4,201.5,31.5,194.2,31.5z M167.5,86.8
			c-2.3,5.3-5.5,9.1-13.7,9.5l18.7-47c2.7-7.1,8.5-9,13.2-9L167.5,86.8z"/>
	</g>
	<g>
		<path class="st2" d="M194.2,31.5c-5.6,0-11.1,0-16.9,0c-14.4,0-21.6,4.9-25.4,13.5l-17,43.4c-4.4,9,5,15.1,13,16.1
			c4.3,0.5,7.3,0.5,11.5,0.5h11.8c8.7,0,13.1-4,16.8-13.5l16.2-40.8C209.4,39.4,201.5,31.5,194.2,31.5z M167.5,86.8
			c-2.3,5.3-5.5,9.1-13.7,9.5l18.7-47c2.7-7.1,8.5-9,13.2-9L167.5,86.8z"/>
	</g>
</g>
<g>
	<g>
		<path class="st1" d="M254.8,31.5l-34.1-0.2c0,0-27.1,67-34.7,88.2c-1.3,3.7-0.8,7.3,3.2,7.3c4.2,0.1,6.9,0,11-0.3
			c2.5-0.2,6.2-3.1,7.4-5.9c2.6-6.3,6-16.1,6-16.1H227c14.3,0,22.9-4,26.7-13.4L270,50.6C273.9,40.9,268,31.5,254.8,31.5z
			 M248.4,48.5l-15.3,38.1c-2.8,6.4-5.4,9.3-16,9.4c0,0,16.2-41.9,19.2-48.7c3-6.7,11.7-6.7,15.1-6.4
			C251.4,40.9,250.5,43.1,248.4,48.5z"/>
	</g>
	<g>
		<path class="st2" d="M254.8,31.5l-34.1-0.2c0,0-27.1,67-34.7,88.2c-1.3,3.7-0.8,7.3,3.2,7.3c4.2,0.1,6.9,0,11-0.3
			c2.5-0.2,6.2-3.1,7.4-5.9c2.6-6.3,6-16.1,6-16.1H227c14.3,0,22.9-4,26.7-13.4L270,50.6C273.9,40.9,268,31.5,254.8,31.5z
			 M248.4,48.5l-15.3,38.1c-2.8,6.4-5.4,9.3-16,9.4c0,0,16.2-41.9,19.2-48.7c3-6.7,11.7-6.7,15.1-6.4
			C251.4,40.9,250.5,43.1,248.4,48.5z"/>
	</g>
</g>
<g>
	<g>
		<path class="st1" d="M81.6,6.8h-31l-39.4,98.4h19.7l10-25.2h12.8c14.4,0,23.8-4.2,27.5-13.4l16.3-40.7C101.4,16,94.8,6.8,81.6,6.8
			z M76.3,22.5L61.1,61.9c-3.3,6.8-9.4,10.4-16.3,9.6c0,0,18.7-47.9,19.3-49.4c0.6-1.6,3.3-3.9,4.9-4.7c1.6-0.7,7.3-1.3,9.6-1.5
			C78,17.7,77.5,19.4,76.3,22.5z"/>
	</g>
	<g>
		<path class="st2" d="M81.6,6.8h-31l-39.4,98.4h19.7l10-25.2h12.8c14.4,0,23.8-4.2,27.5-13.4l16.3-40.7C101.4,16,94.8,6.8,81.6,6.8
			z M76.3,22.5L61.1,61.9c-3.3,6.8-9.4,10.4-16.3,9.6c0,0,18.7-47.9,19.3-49.4c0.6-1.6,3.3-3.9,4.9-4.7c1.6-0.7,7.3-1.3,9.6-1.5
			C78,17.7,77.5,19.4,76.3,22.5z"/>
	</g>
</g>
</svg>
