<?xml version="1.0" encoding="utf-8"?>
<!-- Generator: Adobe Illustrator 21.1.0, SVG Export Plug-In . SVG Version: 6.00 Build 0)  -->
<svg version="1.1" id="Layer_1" xmlns="http://www.w3.org/2000/svg" xmlns:xlink="http://www.w3.org/1999/xlink" x="0px" y="0px"
	 viewBox="0 0 400 150" style="enable-background:new 0 0 400 150;" xml:space="preserve">
<style type="text/css">
	.st0{fill:#242428;}
</style>
<g>
	<path class="st0" d="M102.6,76.3c0-28.5,10.1-46.3,22.7-48.3C112.8,13.1,92,4.9,73.2,4.9c-20.7,0-39.6,8.7-52.6,23.2
		C33.2,30.5,37,41.1,37,57H22c0-9.7-1.9-14.5-7.7-14.5c-2.4,0-4.3,1.4-5.3,3.4c0,0.5-0.5,1-0.5,1c-0.5,1.4-1,2.9-1,4.3
		c0,19.3,32.3,18.3,32.3,48.7c0,11.6-9.2,22.7-19.3,22.7c13.5,14.5,31.4,23.2,52.6,23.2c20.3,0,38.6-8.7,51.6-22.7
		C112.8,120.3,102.6,103.4,102.6,76.3L102.6,76.3z M95.9,122.7H79.5v-40H62.1v40H46.2V30h15.9v37.6h17.4V30h16.4V122.7L95.9,122.7z"
		/>
	<path class="st0" d="M16.7,108.2c4.3,0,7.7-4.3,7.7-10.1c0-11.6-10.6-14-21.7-24.1v3.9C3.2,96,9.5,108.2,16.7,108.2L16.7,108.2z"/>
	<path class="st0" d="M118.6,74.9c0-15.9,4.3-31.4,12.5-31.4c10.1,0,12.5,24.1,12.5,31.8c0,16.4-5.3,31.8-12.5,31.8
		C122.9,107.2,118.6,91.3,118.6,74.9L118.6,74.9z"/>
	<polygon class="st0" points="279.7,31.5 211.7,31.5 204.9,84.5 204.9,84.5 197.7,31.5 182.7,31.5 175,84.5 174.5,84.5 168.7,31.5 
		153.8,31.5 165.8,121.7 180.3,121.7 188.5,64.3 189,64.3 196.7,121.7 211.7,121.7 221.3,45.5 235.3,45.5 235.3,121.7 251.7,121.7 
		251.7,45.5 266.7,45.5 266.7,121.7 283.6,121.7 283.6,31.5 	"/>
	<polygon class="st0" points="291.3,31.5 313.5,31.5 320.7,77.8 320.7,77.8 328.4,31.5 350.2,31.5 350.2,121.7 335.2,121.7 
		335.2,55.6 335.2,55.6 324.1,121.7 314.9,121.7 303.8,55.6 303.4,55.6 303.4,121.7 291.3,121.7 	"/>
	<polygon class="st0" points="357.9,31.5 395,31.5 395,45.5 374.3,45.5 374.3,68.1 389.7,68.1 389.7,83.1 374.3,83.1 374.3,107.7 
		396,107.7 396,121.7 357.9,121.7 	"/>
</g>
</svg>
