<?xml version="1.0" encoding="utf-8"?>
<!-- Generator: Adobe Illustrator 21.1.0, SVG Export Plug-In . SVG Version: 6.00 Build 0)  -->
<svg version="1.1" id="Layer_1" xmlns="http://www.w3.org/2000/svg" xmlns:xlink="http://www.w3.org/1999/xlink" x="0px" y="0px"
	 viewBox="0 0 400 41" style="enable-background:new 0 0 400 41;" xml:space="preserve">
<style type="text/css">
	.st0{fill:#242428;}
</style>
<g>
	<g>
		<g>
			<path class="st0" d="M54.5,20.6c2.3-5-0.9-7-8.3-7H33.8c-2.7,0-3.3-0.2-2.7-1.5l0.9-1.9c0.5-1.3,1.3-1.5,4.1-1.5h16.3
				c3.4,0,4.8,0.4,6.6,1.1l1.6-6.9L28,2.9c-6.2,0-11,2.8-13.5,8.2L11,18.9c-2.7,5.8-0.8,7.5,6.2,7.5h14.3c2.7,0,3.2,0.3,2.6,1.5
				L33,30.3c-0.6,1.3-1.3,1.5-4,1.5H12.1c-3.5,0-4.9-0.6-6.3-1.3l-1.7,7h31.6c8.4,0,12.3-3.1,14.8-8.5L54.5,20.6z"/>
			<path class="st0" d="M139.3,22.5c4,0,5.8,0.5,7.5,0.9l3.5-7.6c-2.1,0.4-4.3,0.9-8.3,0.9h-12.5l3.7-8.1h14.2
				c4.1,0,5.9,0.5,7.6,0.9l1.6-6.7h-39.8c0.3,1.4,0.2,2.7-1.3,5.9l-10.4,22.7c-0.9,2-1.8,3.3-2.6,4.3c-1.1-1.8-1.8-3.9-2.4-5.4
				L94.5,13l11.6-6.8c3.3-2,5.1-2.5,7.6-3.4h-16c-0.1,0.4-0.2,0.9-0.4,1.3c-0.5,1.2-1.4,2-4.2,3.8L76.4,18.5l4.4-9.6
				C82.3,5.6,83.5,4.3,85,3H64.6c0.3,1.4,0.2,2.6-1.3,5.9L52.9,31.6c-1.5,3.3-2.7,4.6-4.1,6h20.4c-0.2-1.4-0.2-2.7,1.3-6l2.4-5.2
				l5.8-3.5l3.6,14.7h59.4l4.6-6.7c-2,0.4-4.2,0.9-8.3,0.9h-15.2l4.3-9.3L139.3,22.5z"/>
			<path class="st0" d="M191.8,29.1c0,0-5.5,1.3-12.5,1.3c0,0-6.8,0-8.2,0c-1.8,0-2.3-0.5-1.6-2.2s7.4-16.3,7.4-16.3
				c0.2-0.5,1.1-2,3.3-2h12.9c3.2,0,6.1,1.1,6.1,1.1l2-8h-0.1l0.1-0.2h-27.6c-7.5,0-12.9,2.7-16.3,10.2l-6.5,14.3
				c-3.4,7.4-0.5,10.2,7,10.2h28.3L191.8,29.1z"/>
			<path class="st0" d="M241.9,31.5l10.4-22.7c1.5-3.3,2.7-4.6,4.1-5.9H236c0.2,1.4,0.2,2.6-1.3,5.9l-3.6,7.9H218l3.6-7.9
				c1.5-3.3,2.7-4.6,4.2-5.9h-20.4c0.3,1.4,0.2,2.6-1.3,5.9l-10.4,22.7c-1.5,3.3-2.7,4.6-4.2,6h20.4c-0.2-1.4-0.2-2.7,1.3-6l4.2-9.1
				h13l-4.2,9.1c-1.5,3.3-2.7,4.6-4.2,6h20.4C240.3,36.1,240.3,34.8,241.9,31.5z"/>
			<path class="st0" d="M278.6,31.7h-15.2l4.2-9.3h12.5c4,0,5.8,0.5,7.5,0.9l3.5-7.5c-2.1,0.4-4.3,0.9-8.3,0.9h-12.5l3.7-8.1h14.3
				c4.1,0,5.9,0.5,7.6,0.9l1.6-6.6h-39.8c0.2,1.4,0.2,2.6-1.3,5.9L246,31.5c-1.5,3.3-2.7,4.6-4.2,6h40.5l4.6-6.7
				C285,31.3,282.7,31.8,278.6,31.7z"/>
			<path class="st0" d="M335.3,22.4c3.8-0.2,7.3-0.5,9.6-5.6l2.9-6.4c2.7-5.8-0.4-7.6-8.4-7.6h-37.8c0.7,1.4,0.6,2.6-0.9,5.9
				l-10.4,22.7c-1.5,3.3-2.7,4.6-4.2,6h20.4c-0.2-1.4-0.2-2.7,1.3-6l4.1-9.1h5.4l1.4,15.1h19.6c-0.9-1.3-1-3.1-1.4-5.3L335.3,22.4z
				 M330.2,10.5l-1.9,4.2c-0.8,1.7-1.5,1.9-3.8,1.9h-9.9l3.8-8.1h9.9C330.5,8.6,331,8.9,330.2,10.5z"/>
			<path class="st0" d="M367.8,10.1c0.6-1.3,1.3-1.5,4.1-1.5h16.3c3.4,0,4.7,0.4,6.6,1.1l2.3-6.9h-33.2c-6.2,0-11,2.8-13.5,8.2
				l-3.5,7.7c-2.7,5.8-0.7,7.5,6.2,7.5h14.3c2.7,0,3.2,0.3,2.6,1.5l-1.1,2.4c-0.6,1.3-1.3,1.5-4,1.5H348c-3.4,0-4.9-0.6-6.3-1.3
				l-1.7,7h31.6c8.4,0,12.4-3.1,14.9-8.5l3.9-8.5c2.3-5-0.8-7-8.3-7h-12.4c-2.7,0-3.3-0.2-2.7-1.5L367.8,10.1z"/>
		</g>
	</g>
</g>
</svg>
