<?xml version="1.0" encoding="utf-8"?>
<!-- Generator: Adobe Illustrator 21.1.0, SVG Export Plug-In . SVG Version: 6.00 Build 0)  -->
<svg version="1.1" id="Layer_1" xmlns="http://www.w3.org/2000/svg" xmlns:xlink="http://www.w3.org/1999/xlink" x="0px" y="0px"
	 viewBox="0 0 400 193" style="enable-background:new 0 0 400 193;" xml:space="preserve">
<style type="text/css">
	.st0{fill:#242428;}
</style>
<g>
	<path class="st0" d="M203.6,59.1c0.6-0.9,2.3-0.3,3.5-0.3c1.6,0,1.2,2.4,3.5,2c2.2-0.5,2.3,2.1,5.5,2s-0.6,1.1-0.6,1.1
		s-2-1-3.3-0.3c-0.7,0.3,0.2-0.2-0.9-1.1c-1.8-1.4-1.5,0.3-4.5-2.2C204.6,58.5,202.6,60.5,203.6,59.1L203.6,59.1z"/>
	<path class="st0" d="M179.5,62.4c-1.9-3.1-0.5-6.9,1.7-10.6c1.6-2.7,5.8-3.9,9.5-2.5c4.1-3.2,5.1,0.2,8.7-1.3
		c4.8-2.1,2.1,5.5,6.7,7.4c1.9-5.1-4.4-8.9-0.4-11.4c2.8-1.7,4.9-2.8,6.1-5.1c1.6-3.3,2.3-5.7,3.6-6.1c2.9-1,2.3-3.8,2.3-3.8
		s3.1,0.9,5.5-1.4c-1.8-1-4.5-1.8-3.8-3.8c0.8-2.3,7.1,2.4,8.9-1.4c-3.7-1.6-7.5-5.1-9.8-6c-1.6,1.7-2.5,1-4.5-0.6
		c-3.4-2.7-3.7-0.1-5.8-2c-1.7,3.4,0.9,3.1,1.6,4c2.2,2.4-2.2-2.1-1.8,4c0.1,1.6-2.2,1.9-4-1.6c-0.9-1.8-8.1-1.4-9.2-3.1
		c1-2,9.5-9.1,22.6-7.4c-19-7.5-44.6,0.7-44.9,3.5c-2.6,1.6-1.7,3.4-3,3.9c-2.2,0.7-4.6,7.5-4.6,7.5s1.4,0.9-2.9,5.7
		c-3.5,4-4.6,10-4.6,10s2.3,4.3,1.9,9.2c-0.3,3.8-0.5,1,1.1,3.7c1,1.6,2,7.2,2.6,5c1.2-4.1-2.2-8-1.6-12.1c0.1,0.5,1.3-1.6,1.3,0.3
		c-0.1,5.1,6.3,14.9,6.3,14.9s-2.4,2.4,0.1,2.4l-0.6,1.5c0,0,1.8-0.1,3,0.9s2.2,2.2,3.3,2.2c2.5,0,18.4,0,18.4,0s1.3-5.6,2.4-6.5
		c1.1-0.9-2.1,0-3.1-0.9c-0.9-0.9-1.5,0.8-2,1.8c-0.5,0.9-1.1,2.6-2.5,3.1s-4.8,0.7-5.6,0.7C181.6,66.5,179.5,62.4,179.5,62.4
		L179.5,62.4z"/>
	<path class="st0" d="M265.5,122c-0.7-0.9,0.1-2.4,0.1-2.4h-51.8l5.8,5c1.3,0.5,2.9,1.8,3.6,3.7c1.7,4.6-0.8,0.9-0.8,7.8
		c0,6.4-1.8,5.3-1.8,5.3s-0.4,7.5-4.3,12.1c-2.5,2.5-0.6,4.5-0.6,4.5s-0.8,0.5-2.1,5.9c-0.4,1.8,1.9,4.5,3.8,3.8
		c1.5-0.5-3.6-1,1.9-3.3c2.1-0.9,0.4-2.6,0.4-2.6s3.5-0.3,5.5-5.6c3.5,0.5,2.2-1.6,9.5-3.2c1.9-0.4,2.3-1,2.1-2.8s2.4,0.3,9.6-7.1
		c5.7-5.8,3.6-7.1,7.5-9.2c4.1-2.2,4.5,0.2,5.9-1.6c3.2-4.1,2.1-3.9,3.4-6.5l0.9-1.5C264.2,124.7,266.2,123,265.5,122L265.5,122z"/>
	<path class="st0" d="M229.3,66.8c-0.1,0.6-0.7,0.7-1.2,0.7l-0.2-1.2C228.5,66.3,228.9,66.6,229.3,66.8L229.3,66.8z"/>
	<path class="st0" d="M225.2,65.9c-1.8,0.4-3.8,0-5.5,1.4c-0.1-0.4-0.6-1.1-1.2-0.9h-0.7c1.6-1.3-0.9-2.7,1.8-2.8
		C221.8,63.6,223.3,65.1,225.2,65.9L225.2,65.9z"/>
	<path class="st0" d="M289.3,124.1c-11.9,37.1-45.4,65.9-87.8,65.9c-45,0-75.2-28.4-87.4-65.1c12.6,34.1,47,58.6,87.4,58.6
		C242.3,183.5,276.9,158.7,289.3,124.1L289.3,124.1z M114,67.5C126,30.5,154.3,2,201.6,2c44,0,76.2,28.9,88,66.3
		c-12.2-34.8-47-60-87.9-60C161,8.4,126.5,33.1,114,67.5L114,67.5z"/>
	<path class="st0" d="M43.3,76.6H28.9l2.2,2.6v18.9c0,4.3-2.8,6.1-7,6.1s-7-1.8-7-6.1V79.2l2.2-2.6H4.7l2.2,2.6v19.2
		c0,9.4,5.3,13.1,17.1,13.1s17.1-3.6,17.1-13.1V79.2L43.3,76.6L43.3,76.6z"/>
	<polygon class="st0" points="93.4,76.6 81.2,76.6 83.4,79.2 83.4,96.4 65.9,76.6 55,76.6 57.2,79.2 57.2,108.2 55,110.8 
		67.2,110.8 65,108.2 65,90.7 83.5,110.8 91.2,110.8 91.2,79.2 	"/>
	<polygon class="st0" points="121.4,110.8 119.3,108.2 119.3,79.2 121.4,76.6 106.9,76.6 109,79.2 109,108.2 106.9,110.8 	"/>
	<polygon class="st0" points="169.3,76.6 157.1,76.6 159.3,79.2 150.6,98 142.3,79.2 144.5,76.6 130.1,76.6 146.1,110.8 
		153.2,110.8 	"/>
	<polygon class="st0" points="210.1,110.8 210.1,101.5 207.5,103.7 190,103.7 190,97.1 201.1,97.1 203.6,99.3 203.6,88.1 
		201.1,90.3 190,90.3 190,83.7 207.5,83.7 210.1,85.9 210.1,76.6 177.9,76.6 180,79.2 180,108.2 177.9,110.8 	"/>
	<path class="st0" d="M259.2,110.8l-9.3-13.5c4.6-1.8,7.7-5.4,7.7-10.4c0-5.7-3.5-10.4-13.2-10.4H223l2.2,2.6v29.1l-2.2,2.6h14.3
		l-2.2-2.6v-9.7h4.3l6.6,9.7l-2.2,2.6L259.2,110.8L259.2,110.8z M247.4,87.7c0,2.5-2.4,4.5-5.6,4.5h-6.5v-8.4h7.7
		C245.2,83.7,247.4,84.8,247.4,87.7L247.4,87.7z"/>
	<path class="st0" d="M302.5,100.8c0-5.4-4.4-8.5-10.7-10.5c-4.1-1.3-9.9-2.2-9.9-4.9c0-1.3,1.6-2.3,4.4-2.3c3.7,0,9.8,1.5,14.5,3.8
		V75.5l-2.7,2.6c-2.9-1.2-7.9-2.4-11.3-2.4c-11.6,0-15.4,5.1-15.4,9.8c0,6.4,4.2,9.1,10.8,11.4c4.9,1.7,9.5,1.8,9.5,4.7
		c0,2.4-2.8,2.7-4.3,2.7c-3.6,0-10.1-1.3-15.9-5V112l2.7-3c2.7,1,8.7,2.8,13.6,2.8C298,111.7,302.5,107.3,302.5,100.8L302.5,100.8z"
		/>
	<path class="st0" d="M353.7,110.8l-16.8-34.2h-11.5l1.2,2.6l-15.2,31.7H324l-2.2-2.6l1.7-3.6h16.3l1.6,3.6l-2.2,2.6h14.5
		L353.7,110.8L353.7,110.8z M337.2,98.5h-11.3l5.6-12.3L337.2,98.5L337.2,98.5z"/>
	<polygon class="st0" points="394.3,110.8 394.3,101.5 391.7,103.7 375.2,103.7 375.2,79.2 377.4,76.6 363.1,76.6 365.2,79.2 
		365.2,108.2 363.1,110.8 	"/>
	<path class="st0" d="M385.1,81.5c0,2.4,1.9,4.3,4.3,4.3s4.3-1.9,4.3-4.3s-1.9-4.3-4.3-4.3S385.1,79.1,385.1,81.5L385.1,81.5z
		 M384.7,81.5c0-2.6,2.1-4.7,4.7-4.7s4.7,2.1,4.7,4.7s-2.1,4.7-4.7,4.7S384.7,84.1,384.7,81.5L384.7,81.5z"/>
	<path class="st0" d="M391.2,79.6c-0.5-0.4-1-0.6-1.6-0.6c-1.4,0-2.4,1.1-2.4,2.5s1,2.5,2.4,2.5c0.6,0,1.2-0.2,1.7-0.7v-0.6
		c-0.4,0.5-1.1,0.8-1.7,0.8c-1.1,0-1.9-1-1.9-2c0-1.1,0.8-2,2-2c0.7,0,1.2,0.3,1.7,0.8v-0.7L391.2,79.6L391.2,79.6z"/>
</g>
</svg>
